<svg width="1784pt" height="404pt" viewBox="0.00 0.00 1784.00 404.00" xmlns="http://www.w3.org/2000/svg" xmlns:xlink="http://www.w3.org/1999/xlink">
<g id="graph1" class="graph" transform="scale(1 1) rotate(0) translate(4 400)">
<title>G</title>
<polygon fill="white" stroke="white" points="-4,5 -4,-400 1781,-400 1781,5 -4,5"></polygon>
<!-- Strong -->
<g id="node1" class="node"><title>Strong</title>
<ellipse fill="#b3abf4" stroke="black" cx="530" cy="-90" rx="39.4602" ry="18"></ellipse>
<text text-anchor="middle" x="530" y="-85.8" font-family="arial" font-size="14.00">Strong</text>
</g>
<!-- Profunctor -->
<g id="node3" class="node"><title>Profunctor</title>
<ellipse fill="#b3abf4" stroke="black" cx="530" cy="-162" rx="55.6507" ry="18"></ellipse>
<text text-anchor="middle" x="530" y="-157.8" font-family="arial" font-size="14.00">Profunctor</text>
</g>
<!-- Strong&#45;&gt;Profunctor -->
<g id="edge2" class="edge"><title>Strong-&gt;Profunctor</title>
<path fill="none" stroke="black" d="M530,-108.303C530,-116.017 530,-125.288 530,-133.888"></path>
<polygon fill="black" stroke="black" points="526.5,-133.896 530,-143.896 533.5,-133.896 526.5,-133.896"></polygon>
</g>
<!-- Functor -->
<g id="node20" class="node"><title>Functor</title>
<ellipse fill="#659dfe" stroke="black" cx="363" cy="-234" rx="43.5367" ry="18"></ellipse>
<text text-anchor="middle" x="363" y="-229.8" font-family="arial" font-size="14.00">Functor</text>
</g>
<!-- Profunctor&#45;&gt;Functor -->
<g id="edge16" class="edge"><title>Profunctor-&gt;Functor</title>
<path fill="none" stroke="black" d="M497.404,-176.663C470.029,-188.138 430.849,-204.56 401.849,-216.716"></path>
<polygon fill="black" stroke="black" points="400.306,-213.568 392.437,-220.661 403.012,-220.023 400.306,-213.568"></polygon>
</g>
<!-- Choice -->
<g id="node4" class="node"><title>Choice</title>
<ellipse fill="#b3abf4" stroke="black" cx="629" cy="-90" rx="41.1684" ry="18"></ellipse>
<text text-anchor="middle" x="629" y="-85.8" font-family="arial" font-size="14.00">Choice</text>
</g>
<!-- Choice&#45;&gt;Profunctor -->
<g id="edge4" class="edge"><title>Choice-&gt;Profunctor</title>
<path fill="none" stroke="black" d="M608.005,-105.845C594.116,-115.665 575.687,-128.696 560.229,-139.626"></path>
<polygon fill="black" stroke="black" points="558.139,-136.817 551.994,-145.448 562.18,-142.533 558.139,-136.817"></polygon>
</g>
<!-- Monoid -->
<g id="node6" class="node"><title>Monoid</title>
<ellipse fill="#fc81bf" stroke="black" cx="829" cy="-18" rx="42.8926" ry="18"></ellipse>
<text text-anchor="middle" x="829" y="-13.8" font-family="arial" font-size="14.00">Monoid</text>
</g>
<!-- Semigroup -->
<g id="node8" class="node"><title>Semigroup</title>
<ellipse fill="#fc81bf" stroke="black" cx="829" cy="-90" rx="57.9391" ry="18"></ellipse>
<text text-anchor="middle" x="829" y="-85.8" font-family="arial" font-size="14.00">Semigroup</text>
</g>
<!-- Monoid&#45;&gt;Semigroup -->
<g id="edge6" class="edge"><title>Monoid-&gt;Semigroup</title>
<path fill="none" stroke="black" d="M829,-36.3034C829,-44.0173 829,-53.2875 829,-61.8876"></path>
<polygon fill="black" stroke="black" points="825.5,-61.8956 829,-71.8957 832.5,-61.8957 825.5,-61.8956"></polygon>
</g>
<!-- Field -->
<g id="node9" class="node"><title>Field</title>
<ellipse fill="#fdf4aa" stroke="black" cx="936" cy="-18" rx="31.9166" ry="18"></ellipse>
<text text-anchor="middle" x="936" y="-13.8" font-family="arial" font-size="14.00">Field</text>
</g>
<!-- Ring -->
<g id="node11" class="node"><title>Ring</title>
<ellipse fill="#fdf4aa" stroke="black" cx="936" cy="-90" rx="30.7751" ry="18"></ellipse>
<text text-anchor="middle" x="936" y="-85.8" font-family="arial" font-size="14.00">Ring</text>
</g>
<!-- Field&#45;&gt;Ring -->
<g id="edge8" class="edge"><title>Field-&gt;Ring</title>
<path fill="none" stroke="black" d="M936,-36.3034C936,-44.0173 936,-53.2875 936,-61.8876"></path>
<polygon fill="black" stroke="black" points="932.5,-61.8956 936,-71.8957 939.5,-61.8957 932.5,-61.8956"></polygon>
</g>
<!-- Semiring -->
<g id="node12" class="node"><title>Semiring</title>
<ellipse fill="#fdf4aa" stroke="black" cx="936" cy="-162" rx="49.2512" ry="18"></ellipse>
<text text-anchor="middle" x="936" y="-157.8" font-family="arial" font-size="14.00">Semiring</text>
</g>
<!-- Ring&#45;&gt;Semiring -->
<g id="edge9" class="edge"><title>Ring-&gt;Semiring</title>
<path fill="none" stroke="black" d="M936,-108.303C936,-116.017 936,-125.288 936,-133.888"></path>
<polygon fill="black" stroke="black" points="932.5,-133.896 936,-143.896 939.5,-133.896 932.5,-133.896"></polygon>
</g>
<!-- Ord -->
<g id="node13" class="node"><title>Ord</title>
<ellipse fill="#fc81bf" stroke="black" cx="1042" cy="-90" rx="27.2641" ry="18"></ellipse>
<text text-anchor="middle" x="1042" y="-85.8" font-family="arial" font-size="14.00">Ord</text>
</g>
<!-- Setoid -->
<g id="node14" class="node"><title>Setoid</title>
<ellipse fill="#fc81bf" stroke="black" cx="1042" cy="-162" rx="38.3165" ry="18"></ellipse>
<text text-anchor="middle" x="1042" y="-157.8" font-family="arial" font-size="14.00">Setoid</text>
</g>
<!-- Ord&#45;&gt;Setoid -->
<g id="edge12" class="edge"><title>Ord-&gt;Setoid</title>
<path fill="none" stroke="black" d="M1042,-108.303C1042,-116.017 1042,-125.288 1042,-133.888"></path>
<polygon fill="black" stroke="black" points="1038.5,-133.896 1042,-143.896 1045.5,-133.896 1038.5,-133.896"></polygon>
</g>
<!-- Bounded -->
<g id="node15" class="node"><title>Bounded</title>
<ellipse fill="#fecfe6" stroke="black" cx="1042" cy="-18" rx="49.8737" ry="18"></ellipse>
<text text-anchor="middle" x="1042" y="-13.8" font-family="arial" font-size="14.00">Bounded</text>
</g>
<!-- Bounded&#45;&gt;Ord -->
<g id="edge11" class="edge"><title>Bounded-&gt;Ord</title>
<path fill="none" stroke="black" d="M1042,-36.3034C1042,-44.0173 1042,-53.2875 1042,-61.8876"></path>
<polygon fill="black" stroke="black" points="1038.5,-61.8956 1042,-71.8957 1045.5,-61.8957 1038.5,-61.8956"></polygon>
</g>
<!-- Category -->
<g id="node17" class="node"><title>Category</title>
<ellipse fill="#fdf4aa" stroke="black" cx="1160" cy="-18" rx="50.4168" ry="18"></ellipse>
<text text-anchor="middle" x="1160" y="-13.8" font-family="arial" font-size="14.00">Category</text>
</g>
<!-- Semigroupoid -->
<g id="node19" class="node"><title>Semigroupoid</title>
<ellipse fill="#fdf4aa" stroke="black" cx="1160" cy="-90" rx="70.6974" ry="18"></ellipse>
<text text-anchor="middle" x="1160" y="-85.8" font-family="arial" font-size="14.00">Semigroupoid</text>
</g>
<!-- Category&#45;&gt;Semigroupoid -->
<g id="edge14" class="edge"><title>Category-&gt;Semigroupoid</title>
<path fill="none" stroke="black" d="M1160,-36.3034C1160,-44.0173 1160,-53.2875 1160,-61.8876"></path>
<polygon fill="black" stroke="black" points="1156.5,-61.8956 1160,-71.8957 1163.5,-61.8957 1156.5,-61.8956"></polygon>
</g>
<!-- Applicative -->
<g id="node21" class="node"><title>Applicative</title>
<ellipse fill="#659dfe" stroke="black" cx="291" cy="-90" rx="57.9391" ry="18"></ellipse>
<text text-anchor="middle" x="291" y="-85.8" font-family="arial" font-size="14.00">Applicative</text>
</g>
<!-- Apply -->
<g id="node34" class="node"><title>Apply</title>
<ellipse fill="#bfd7ff" stroke="black" cx="315" cy="-162" rx="35.3703" ry="18"></ellipse>
<text text-anchor="middle" x="315" y="-157.8" font-family="arial" font-size="14.00">Apply</text>
</g>
<!-- Applicative&#45;&gt;Apply -->
<g id="edge26" class="edge"><title>Applicative-&gt;Apply</title>
<path fill="none" stroke="black" d="M296.81,-107.945C299.551,-115.941 302.887,-125.669 305.949,-134.6"></path>
<polygon fill="black" stroke="black" points="302.69,-135.887 309.244,-144.211 309.311,-133.616 302.69,-135.887"></polygon>
</g>
<!-- Monad -->
<g id="node22" class="node"><title>Monad</title>
<ellipse fill="#659dfe" stroke="black" cx="291" cy="-18" rx="40.606" ry="18"></ellipse>
<text text-anchor="middle" x="291" y="-13.8" font-family="arial" font-size="14.00">Monad</text>
</g>
<!-- Monad&#45;&gt;Applicative -->
<g id="edge25" class="edge"><title>Monad-&gt;Applicative</title>
<path fill="none" stroke="black" d="M291,-36.3034C291,-44.0173 291,-53.2875 291,-61.8876"></path>
<polygon fill="black" stroke="black" points="287.5,-61.8956 291,-71.8957 294.5,-61.8957 287.5,-61.8956"></polygon>
</g>
<!-- Chain -->
<g id="node36" class="node"><title>Chain</title>
<ellipse fill="#bfd7ff" stroke="black" cx="179" cy="-90" rx="36.0129" ry="18"></ellipse>
<text text-anchor="middle" x="179" y="-85.8" font-family="arial" font-size="14.00">Chain</text>
</g>
<!-- Monad&#45;&gt;Chain -->
<g id="edge29" class="edge"><title>Monad-&gt;Chain</title>
<path fill="none" stroke="black" d="M268.604,-32.9973C251.52,-43.6747 227.815,-58.4904 209.078,-70.2011"></path>
<polygon fill="black" stroke="black" points="207.221,-67.2346 200.596,-75.5026 210.931,-73.1706 207.221,-67.2346"></polygon>
</g>
<!-- Alternative -->
<g id="node23" class="node"><title>Alternative</title>
<ellipse fill="#659dfe" stroke="black" cx="559" cy="-18" rx="56.7929" ry="18"></ellipse>
<text text-anchor="middle" x="559" y="-13.8" font-family="arial" font-size="14.00">Alternative</text>
</g>
<!-- Alternative&#45;&gt;Applicative -->
<g id="edge20" class="edge"><title>Alternative-&gt;Applicative</title>
<path fill="none" stroke="black" d="M516.83,-30.0145C469.982,-42.2509 394.281,-62.0236 343.597,-75.262"></path>
<polygon fill="black" stroke="black" points="342.601,-71.9047 333.81,-77.8183 344.37,-78.6775 342.601,-71.9047"></polygon>
</g>
<!-- Plus -->
<g id="node32" class="node"><title>Plus</title>
<ellipse fill="#bfd7ff" stroke="black" cx="718" cy="-90" rx="29.6339" ry="18"></ellipse>
<text text-anchor="middle" x="718" y="-85.8" font-family="arial" font-size="14.00">Plus</text>
</g>
<!-- Alternative&#45;&gt;Plus -->
<g id="edge22" class="edge"><title>Alternative-&gt;Plus</title>
<path fill="none" stroke="black" d="M590.794,-32.9973C618.195,-45.0605 657.594,-62.406 685.265,-74.5882"></path>
<polygon fill="black" stroke="black" points="683.962,-77.8387 694.524,-78.6648 686.782,-71.4321 683.962,-77.8387"></polygon>
</g>
<!-- Traversable -->
<g id="node24" class="node"><title>Traversable</title>
<ellipse fill="#659dfe" stroke="black" cx="200" cy="-162" rx="62.0137" ry="18"></ellipse>
<text text-anchor="middle" x="200" y="-157.8" font-family="arial" font-size="14.00">Traversable</text>
</g>
<!-- Traversable&#45;&gt;Functor -->
<g id="edge39" class="edge"><title>Traversable-&gt;Functor</title>
<path fill="none" stroke="black" d="M233.379,-177.334C259.874,-188.713 296.939,-204.63 324.651,-216.531"></path>
<polygon fill="black" stroke="black" points="323.461,-219.829 334.031,-220.559 326.223,-213.397 323.461,-219.829"></polygon>
</g>
<!-- Foldable -->
<g id="node25" class="node"><title>Foldable</title>
<ellipse fill="#659dfe" stroke="black" cx="201" cy="-234" rx="48.1264" ry="18"></ellipse>
<text text-anchor="middle" x="201" y="-229.8" font-family="arial" font-size="14.00">Foldable</text>
</g>
<!-- Traversable&#45;&gt;Foldable -->
<g id="edge37" class="edge"><title>Traversable-&gt;Foldable</title>
<path fill="none" stroke="black" d="M200.247,-180.303C200.357,-188.017 200.49,-197.288 200.613,-205.888"></path>
<polygon fill="black" stroke="black" points="197.113,-205.947 200.756,-215.896 204.112,-205.847 197.113,-205.947"></polygon>
</g>
<!-- Compactable -->
<g id="node26" class="node"><title>Compactable</title>
<ellipse fill="#659dfe" stroke="black" cx="67" cy="-234" rx="67.8319" ry="18"></ellipse>
<text text-anchor="middle" x="67" y="-229.8" font-family="arial" font-size="14.00">Compactable</text>
</g>
<!-- Alt -->
<g id="node28" class="node"><title>Alt</title>
<ellipse fill="#bfd7ff" stroke="black" cx="675" cy="-162" rx="27" ry="18"></ellipse>
<text text-anchor="middle" x="675" y="-157.8" font-family="arial" font-size="14.00">Alt</text>
</g>
<!-- Alt&#45;&gt;Functor -->
<g id="edge18" class="edge"><title>Alt-&gt;Functor</title>
<path fill="none" stroke="black" d="M649.732,-168.669C597.504,-180.387 476.955,-207.433 409.989,-222.457"></path>
<polygon fill="black" stroke="black" points="409.108,-219.068 400.117,-224.673 410.64,-225.898 409.108,-219.068"></polygon>
</g>
<!-- Plus&#45;&gt;Alt -->
<g id="edge23" class="edge"><title>Plus-&gt;Alt</title>
<path fill="none" stroke="black" d="M708.027,-107.235C702.763,-115.805 696.189,-126.506 690.296,-136.1"></path>
<polygon fill="black" stroke="black" points="687.171,-134.5 684.919,-144.853 693.136,-138.164 687.171,-134.5"></polygon>
</g>
<!-- Apply&#45;&gt;Functor -->
<g id="edge27" class="edge"><title>Apply-&gt;Functor</title>
<path fill="none" stroke="black" d="M326.133,-179.235C331.985,-187.77 339.286,-198.418 345.844,-207.981"></path>
<polygon fill="black" stroke="black" points="343.052,-210.099 351.594,-216.367 348.825,-206.14 343.052,-210.099"></polygon>
</g>
<!-- Chain&#45;&gt;Apply -->
<g id="edge30" class="edge"><title>Chain-&gt;Apply</title>
<path fill="none" stroke="black" d="M203.314,-103.515C225.168,-114.763 257.461,-131.384 281.709,-143.865"></path>
<polygon fill="black" stroke="black" points="280.403,-147.129 290.896,-148.594 283.607,-140.905 280.403,-147.129"></polygon>
</g>
<!-- ChainRec -->
<g id="node37" class="node"><title>ChainRec</title>
<ellipse fill="#bfd7ff" stroke="black" cx="179" cy="-18" rx="53.3476" ry="18"></ellipse>
<text text-anchor="middle" x="179" y="-13.8" font-family="arial" font-size="14.00">ChainRec</text>
</g>
<!-- ChainRec&#45;&gt;Chain -->
<g id="edge32" class="edge"><title>ChainRec-&gt;Chain</title>
<path fill="none" stroke="black" d="M179,-36.3034C179,-44.0173 179,-53.2875 179,-61.8876"></path>
<polygon fill="black" stroke="black" points="175.5,-61.8956 179,-71.8957 182.5,-61.8957 175.5,-61.8956"></polygon>
</g>
<!-- Comonad -->
<g id="node39" class="node"><title>Comonad</title>
<ellipse fill="#bfd7ff" stroke="black" cx="420" cy="-90" rx="52.7854" ry="18"></ellipse>
<text text-anchor="middle" x="420" y="-85.8" font-family="arial" font-size="14.00">Comonad</text>
</g>
<!-- Extend -->
<g id="node41" class="node"><title>Extend</title>
<ellipse fill="#bfd7ff" stroke="black" cx="412" cy="-162" rx="41.1877" ry="18"></ellipse>
<text text-anchor="middle" x="412" y="-157.8" font-family="arial" font-size="14.00">Extend</text>
</g>
<!-- Comonad&#45;&gt;Extend -->
<g id="edge34" class="edge"><title>Comonad-&gt;Extend</title>
<path fill="none" stroke="black" d="M418.022,-108.303C417.141,-116.017 416.081,-125.288 415.099,-133.888"></path>
<polygon fill="black" stroke="black" points="411.613,-133.563 413.955,-143.896 418.568,-134.358 411.613,-133.563"></polygon>
</g>
<!-- Extend&#45;&gt;Functor -->
<g id="edge35" class="edge"><title>Extend-&gt;Functor</title>
<path fill="none" stroke="black" d="M400.388,-179.589C394.407,-188.132 386.995,-198.722 380.351,-208.213"></path>
<polygon fill="black" stroke="black" points="377.396,-206.331 374.529,-216.53 383.131,-210.345 377.396,-206.331"></polygon>
</g>
<!-- Filterable -->
<g id="node44" class="node"><title>Filterable</title>
<ellipse fill="#bfd7ff" stroke="black" cx="68" cy="-162" rx="50.9735" ry="18"></ellipse>
<text text-anchor="middle" x="68" y="-157.8" font-family="arial" font-size="14.00">Filterable</text>
</g>
<!-- Filterable&#45;&gt;Functor -->
<g id="edge41" class="edge"><title>Filterable-&gt;Functor</title>
<path fill="none" stroke="black" d="M105.995,-173.899C113.596,-175.992 121.538,-178.116 129,-180 193.153,-196.194 267.785,-212.697 315.192,-222.891"></path>
<polygon fill="black" stroke="black" points="314.662,-226.356 325.173,-225.03 316.129,-219.512 314.662,-226.356"></polygon>
</g>
<!-- Filterable&#45;&gt;Compactable -->
<g id="edge43" class="edge"><title>Filterable-&gt;Compactable</title>
<path fill="none" stroke="black" d="M67.7528,-180.303C67.6426,-188.017 67.5102,-197.288 67.3873,-205.888"></path>
<polygon fill="black" stroke="black" points="63.8876,-205.847 67.2443,-215.896 70.8869,-205.947 63.8876,-205.847"></polygon>
</g>
<!-- Witherable -->
<g id="node47" class="node"><title>Witherable</title>
<ellipse fill="#bfd7ff" stroke="black" cx="68" cy="-90" rx="57.3553" ry="18"></ellipse>
<text text-anchor="middle" x="68" y="-85.8" font-family="arial" font-size="14.00">Witherable</text>
</g>
<!-- Witherable&#45;&gt;Traversable -->
<g id="edge45" class="edge"><title>Witherable-&gt;Traversable</title>
<path fill="none" stroke="black" d="M95.9938,-105.845C115.375,-116.123 141.39,-129.919 162.552,-141.141"></path>
<polygon fill="black" stroke="black" points="161.117,-144.342 171.591,-145.935 164.397,-138.158 161.117,-144.342"></polygon>
</g>
<!-- Witherable&#45;&gt;Filterable -->
<g id="edge47" class="edge"><title>Witherable-&gt;Filterable</title>
<path fill="none" stroke="black" d="M68,-108.303C68,-116.017 68,-125.288 68,-133.888"></path>
<polygon fill="black" stroke="black" points="64.5001,-133.896 68,-143.896 71.5001,-133.896 64.5001,-133.896"></polygon>
</g>
<!-- BooleanAlgebra -->
<g id="node50" class="node"><title>BooleanAlgebra</title>
<ellipse fill="#fdf4aa" stroke="black" cx="1326" cy="-18" rx="79.965" ry="18"></ellipse>
<text text-anchor="middle" x="1326" y="-13.8" font-family="arial" font-size="14.00">BooleanAlgebra</text>
</g>
<!-- HeytingAlgebra -->
<g id="node52" class="node"><title>HeytingAlgebra</title>
<ellipse fill="#fdf4aa" stroke="black" cx="1326" cy="-90" rx="77.0777" ry="18"></ellipse>
<text text-anchor="middle" x="1326" y="-85.8" font-family="arial" font-size="14.00">HeytingAlgebra</text>
</g>
<!-- BooleanAlgebra&#45;&gt;HeytingAlgebra -->
<g id="edge49" class="edge"><title>BooleanAlgebra-&gt;HeytingAlgebra</title>
<path fill="none" stroke="black" d="M1326,-36.3034C1326,-44.0173 1326,-53.2875 1326,-61.8876"></path>
<polygon fill="black" stroke="black" points="1322.5,-61.8956 1326,-71.8957 1329.5,-61.8957 1322.5,-61.8956"></polygon>
</g>
<!-- BoundedDistributiveLattice -->
<g id="node53" class="node"><title>BoundedDistributiveLattice</title>
<ellipse fill="#fdf4aa" stroke="black" cx="1326" cy="-162" rx="125.748" ry="18"></ellipse>
<text text-anchor="middle" x="1326" y="-157.8" font-family="arial" font-size="14.00">BoundedDistributiveLattice</text>
</g>
<!-- HeytingAlgebra&#45;&gt;BoundedDistributiveLattice -->
<g id="edge50" class="edge"><title>HeytingAlgebra-&gt;BoundedDistributiveLattice</title>
<path fill="none" stroke="black" d="M1326,-108.303C1326,-116.017 1326,-125.288 1326,-133.888"></path>
<polygon fill="black" stroke="black" points="1322.5,-133.896 1326,-143.896 1329.5,-133.896 1322.5,-133.896"></polygon>
</g>
<!-- BoundedLattice -->
<g id="node54" class="node"><title>BoundedLattice</title>
<ellipse fill="#fdf4aa" stroke="black" cx="1417" cy="-234" rx="78.2603" ry="18"></ellipse>
<text text-anchor="middle" x="1417" y="-229.8" font-family="arial" font-size="14.00">BoundedLattice</text>
</g>
<!-- BoundedDistributiveLattice&#45;&gt;BoundedLattice -->
<g id="edge51" class="edge"><title>BoundedDistributiveLattice-&gt;BoundedLattice</title>
<path fill="none" stroke="black" d="M1348.03,-179.945C1359.85,-189.04 1374.59,-200.374 1387.4,-210.229"></path>
<polygon fill="black" stroke="black" points="1385.43,-213.13 1395.49,-216.453 1389.7,-207.581 1385.43,-213.13"></polygon>
</g>
<!-- DistributiveLattice -->
<g id="node57" class="node"><title>DistributiveLattice</title>
<ellipse fill="#fdf4aa" stroke="black" cx="1234" cy="-234" rx="87.4486" ry="18"></ellipse>
<text text-anchor="middle" x="1234" y="-229.8" font-family="arial" font-size="14.00">DistributiveLattice</text>
</g>
<!-- BoundedDistributiveLattice&#45;&gt;DistributiveLattice -->
<g id="edge54" class="edge"><title>BoundedDistributiveLattice-&gt;DistributiveLattice</title>
<path fill="none" stroke="black" d="M1303.73,-179.945C1291.78,-189.04 1276.88,-200.374 1263.93,-210.229"></path>
<polygon fill="black" stroke="black" points="1261.59,-207.612 1255.75,-216.453 1265.83,-213.183 1261.59,-207.612"></polygon>
</g>
<!-- BoundedJoinSemilattice -->
<g id="node55" class="node"><title>BoundedJoinSemilattice</title>
<ellipse fill="#fdf4aa" stroke="black" cx="1406" cy="-306" rx="114.715" ry="18"></ellipse>
<text text-anchor="middle" x="1406" y="-301.8" font-family="arial" font-size="14.00">BoundedJoinSemilattice</text>
</g>
<!-- BoundedLattice&#45;&gt;BoundedJoinSemilattice -->
<g id="edge52" class="edge"><title>BoundedLattice-&gt;BoundedJoinSemilattice</title>
<path fill="none" stroke="black" d="M1414.28,-252.303C1413.07,-260.017 1411.61,-269.288 1410.26,-277.888"></path>
<polygon fill="black" stroke="black" points="1406.78,-277.474 1408.69,-287.896 1413.7,-278.56 1406.78,-277.474"></polygon>
</g>
<!-- BoundedMeetSemilattice -->
<g id="node64" class="node"><title>BoundedMeetSemilattice</title>
<ellipse fill="#fdf4aa" stroke="black" cx="1657" cy="-306" rx="118.226" ry="18"></ellipse>
<text text-anchor="middle" x="1657" y="-301.8" font-family="arial" font-size="14.00">BoundedMeetSemilattice</text>
</g>
<!-- BoundedLattice&#45;&gt;BoundedMeetSemilattice -->
<g id="edge62" class="edge"><title>BoundedLattice-&gt;BoundedMeetSemilattice</title>
<path fill="none" stroke="black" d="M1463.56,-248.58C1501.04,-259.512 1554.05,-274.973 1595.1,-286.947"></path>
<polygon fill="black" stroke="black" points="1594.15,-290.316 1604.73,-289.756 1596.11,-283.596 1594.15,-290.316"></polygon>
</g>
<!-- JoinSemilattice -->
<g id="node59" class="node"><title>JoinSemilattice</title>
<ellipse fill="#fdf4aa" stroke="black" cx="1320" cy="-378" rx="75.9145" ry="18"></ellipse>
<text text-anchor="middle" x="1320" y="-373.8" font-family="arial" font-size="14.00">JoinSemilattice</text>
</g>
<!-- BoundedJoinSemilattice&#45;&gt;JoinSemilattice -->
<g id="edge60" class="edge"><title>BoundedJoinSemilattice-&gt;JoinSemilattice</title>
<path fill="none" stroke="black" d="M1385.18,-323.945C1374.11,-332.953 1360.35,-344.158 1348.32,-353.947"></path>
<polygon fill="black" stroke="black" points="1345.88,-351.425 1340.33,-360.453 1350.29,-356.854 1345.88,-351.425"></polygon>
</g>
<!-- Lattice -->
<g id="node58" class="node"><title>Lattice</title>
<ellipse fill="#fdf4aa" stroke="black" cx="1234" cy="-306" rx="39.4602" ry="18"></ellipse>
<text text-anchor="middle" x="1234" y="-301.8" font-family="arial" font-size="14.00">Lattice</text>
</g>
<!-- DistributiveLattice&#45;&gt;Lattice -->
<g id="edge55" class="edge"><title>DistributiveLattice-&gt;Lattice</title>
<path fill="none" stroke="black" d="M1234,-252.303C1234,-260.017 1234,-269.288 1234,-277.888"></path>
<polygon fill="black" stroke="black" points="1230.5,-277.896 1234,-287.896 1237.5,-277.896 1230.5,-277.896"></polygon>
</g>
<!-- Lattice&#45;&gt;JoinSemilattice -->
<g id="edge56" class="edge"><title>Lattice-&gt;JoinSemilattice</title>
<path fill="none" stroke="black" d="M1252.66,-322.189C1264.09,-331.491 1278.94,-343.576 1291.78,-354.031"></path>
<polygon fill="black" stroke="black" points="1289.91,-357.022 1299.88,-360.62 1294.33,-351.593 1289.91,-357.022"></polygon>
</g>
<!-- MeetSemilattice -->
<g id="node61" class="node"><title>MeetSemilattice</title>
<ellipse fill="#fdf4aa" stroke="black" cx="1575" cy="-378" rx="79.9262" ry="18"></ellipse>
<text text-anchor="middle" x="1575" y="-373.8" font-family="arial" font-size="14.00">MeetSemilattice</text>
</g>
<!-- Lattice&#45;&gt;MeetSemilattice -->
<g id="edge58" class="edge"><title>Lattice-&gt;MeetSemilattice</title>
<path fill="none" stroke="black" d="M1263.21,-318.189C1269.36,-320.306 1275.85,-322.366 1282,-324 1354.5,-343.26 1438.94,-357.714 1498.5,-366.622"></path>
<polygon fill="black" stroke="black" points="1498.18,-370.112 1508.58,-368.113 1499.2,-363.188 1498.18,-370.112"></polygon>
</g>
<!-- BoundedMeetSemilattice&#45;&gt;MeetSemilattice -->
<g id="edge63" class="edge"><title>BoundedMeetSemilattice-&gt;MeetSemilattice</title>
<path fill="none" stroke="black" d="M1637.15,-323.945C1626.6,-332.953 1613.47,-344.158 1602.01,-353.947"></path>
<polygon fill="black" stroke="black" points="1599.72,-351.298 1594.38,-360.453 1604.26,-356.622 1599.72,-351.298"></polygon>
</g>
</g>
</svg>
