<svg xmlns="http://www.w3.org/2000/svg" xmlns:xlink="http://www.w3.org/1999/xlink" width="1875pt" height="404pt" viewBox="0.00 0.00 1875.37 404.00">
<g id="graph0" class="graph" transform="scale(1 1) rotate(0) translate(4 400)">
<title>G</title>
<polygon fill="#ffffff" stroke="transparent" points="-4,4 -4,-400 1871.3697,-400 1871.3697,4 -4,4"></polygon>
<!-- Choice -->
<g id="node1" class="node">
<title>Choice</title>
<g id="a_node1"><a xlink:href="./modules/Choice.ts.html" xlink:title="Choice">
<ellipse fill="#b3abf4" stroke="#000000" cx="801.0068" cy="-90" rx="41.1684" ry="18"></ellipse>
<text text-anchor="middle" x="801.0068" y="-85.8" font-family="arial" font-size="14.00" fill="#000000">Choice</text>
</a>
</g>
</g>
<!-- Profunctor -->
<g id="node2" class="node">
<title>Profunctor</title>
<g id="a_node2"><a xlink:href="./modules/Profunctor.ts.html" xlink:title="Profunctor">
<ellipse fill="#b3abf4" stroke="#000000" cx="702.0068" cy="-162" rx="55.6507" ry="18"></ellipse>
<text text-anchor="middle" x="702.0068" y="-157.8" font-family="arial" font-size="14.00" fill="#000000">Profunctor</text>
</a>
</g>
</g>
<!-- Choice&#45;&gt;Profunctor -->
<g id="edge2" class="edge">
<title>Choice-&gt;Profunctor</title>
<path fill="none" stroke="#000000" d="M779.5253,-105.6229C766.0244,-115.4418 748.3771,-128.2762 733.3313,-139.2185"></path>
<polygon fill="#000000" stroke="#000000" points="730.8531,-136.6931 724.8243,-145.4055 734.9703,-142.3543 730.8531,-136.6931"></polygon>
</g>
<!-- Functor -->
<g id="node20" class="node">
<title>Functor</title>
<g id="a_node20"><a xlink:href="./modules/Functor.ts.html" xlink:title="Functor">
<ellipse fill="#659dfe" stroke="#000000" cx="383.0068" cy="-234" rx="43.5367" ry="18"></ellipse>
<text text-anchor="middle" x="383.0068" y="-229.8" font-family="arial" font-size="14.00" fill="#000000">Functor</text>
</a>
</g>
</g>
<!-- Profunctor&#45;&gt;Functor -->
<g id="edge11" class="edge">
<title>Profunctor-&gt;Functor</title>
<path fill="none" stroke="#000000" d="M659.0128,-173.5169C650.4156,-175.7348 641.4368,-177.991 633.0068,-180 563.7036,-196.5164 483.0693,-213.5413 432.53,-223.9496"></path>
<polygon fill="#000000" stroke="#000000" points="431.6179,-220.5637 422.5266,-226.0042 433.0263,-227.4206 431.6179,-220.5637"></polygon>
</g>
<!-- Strong -->
<g id="node3" class="node">
<title>Strong</title>
<g id="a_node3"><a xlink:href="./modules/Strong.ts.html" xlink:title="Strong">
<ellipse fill="#b3abf4" stroke="#000000" cx="702.0068" cy="-90" rx="39.4602" ry="18"></ellipse>
<text text-anchor="middle" x="702.0068" y="-85.8" font-family="arial" font-size="14.00" fill="#000000">Strong</text>
</a>
</g>
</g>
<!-- Strong&#45;&gt;Profunctor -->
<g id="edge1" class="edge">
<title>Strong-&gt;Profunctor</title>
<path fill="none" stroke="#000000" d="M702.0068,-108.1686C702.0068,-115.869 702.0068,-125.0257 702.0068,-133.5834"></path>
<polygon fill="#000000" stroke="#000000" points="698.5069,-133.5867 702.0068,-143.5867 705.5069,-133.5868 698.5069,-133.5867"></polygon>
</g>
<!-- Group -->
<g id="node4" class="node">
<title>Group</title>
<g id="a_node4"><a xlink:href="./modules/Group.ts.html" xlink:title="Group">
<ellipse fill="#fc81bf" stroke="#000000" cx="903.0068" cy="-18" rx="37.7371" ry="18"></ellipse>
<text text-anchor="middle" x="903.0068" y="-13.8" font-family="arial" font-size="14.00" fill="#000000">Group</text>
</a>
</g>
</g>
<!-- Monoid -->
<g id="node6" class="node">
<title>Monoid</title>
<g id="a_node6"><a xlink:href="./modules/Monoid.ts.html" xlink:title="Monoid">
<ellipse fill="#fc81bf" stroke="#000000" cx="903.0068" cy="-90" rx="42.8926" ry="18"></ellipse>
<text text-anchor="middle" x="903.0068" y="-85.8" font-family="arial" font-size="14.00" fill="#000000">Monoid</text>
</a>
</g>
</g>
<!-- Group&#45;&gt;Monoid -->
<g id="edge3" class="edge">
<title>Group-&gt;Monoid</title>
<path fill="none" stroke="#000000" d="M903.0068,-36.1686C903.0068,-43.869 903.0068,-53.0257 903.0068,-61.5834"></path>
<polygon fill="#000000" stroke="#000000" points="899.5069,-61.5867 903.0068,-71.5867 906.5069,-61.5868 899.5069,-61.5867"></polygon>
</g>
<!-- Magma -->
<g id="node5" class="node">
<title>Magma</title>
<g id="a_node5"><a xlink:href="./modules/Magma.ts.html" xlink:title="Magma">
<ellipse fill="#fc81bf" stroke="#000000" cx="903.0068" cy="-234" rx="43.4571" ry="18"></ellipse>
<text text-anchor="middle" x="903.0068" y="-229.8" font-family="arial" font-size="14.00" fill="#000000">Magma</text>
</a>
</g>
</g>
<!-- Semigroup -->
<g id="node7" class="node">
<title>Semigroup</title>
<g id="a_node7"><a xlink:href="./modules/Semigroup.ts.html" xlink:title="Semigroup">
<ellipse fill="#fc81bf" stroke="#000000" cx="903.0068" cy="-162" rx="57.9391" ry="18"></ellipse>
<text text-anchor="middle" x="903.0068" y="-157.8" font-family="arial" font-size="14.00" fill="#000000">Semigroup</text>
</a>
</g>
</g>
<!-- Monoid&#45;&gt;Semigroup -->
<g id="edge4" class="edge">
<title>Monoid-&gt;Semigroup</title>
<path fill="none" stroke="#000000" d="M903.0068,-108.1686C903.0068,-115.869 903.0068,-125.0257 903.0068,-133.5834"></path>
<polygon fill="#000000" stroke="#000000" points="899.5069,-133.5867 903.0068,-143.5867 906.5069,-133.5868 899.5069,-133.5867"></polygon>
</g>
<!-- Semigroup&#45;&gt;Magma -->
<g id="edge5" class="edge">
<title>Semigroup-&gt;Magma</title>
<path fill="none" stroke="#000000" d="M903.0068,-180.1686C903.0068,-187.869 903.0068,-197.0257 903.0068,-205.5834"></path>
<polygon fill="#000000" stroke="#000000" points="899.5069,-205.5867 903.0068,-215.5867 906.5069,-205.5868 899.5069,-205.5867"></polygon>
</g>
<!-- Field -->
<g id="node8" class="node">
<title>Field</title>
<g id="a_node8"><a xlink:href="./modules/Field.ts.html" xlink:title="Field">
<ellipse fill="#fdf4aa" stroke="#000000" cx="1028.0068" cy="-18" rx="31.9166" ry="18"></ellipse>
<text text-anchor="middle" x="1028.0068" y="-13.8" font-family="arial" font-size="14.00" fill="#000000">Field</text>
</a>
</g>
</g>
<!-- Ring -->
<g id="node9" class="node">
<title>Ring</title>
<g id="a_node9"><a xlink:href="./modules/Ring.ts.html" xlink:title="Ring">
<ellipse fill="#fdf4aa" stroke="#000000" cx="1028.0068" cy="-90" rx="30.7751" ry="18"></ellipse>
<text text-anchor="middle" x="1028.0068" y="-85.8" font-family="arial" font-size="14.00" fill="#000000">Ring</text>
</a>
</g>
</g>
<!-- Field&#45;&gt;Ring -->
<g id="edge6" class="edge">
<title>Field-&gt;Ring</title>
<path fill="none" stroke="#000000" d="M1028.0068,-36.1686C1028.0068,-43.869 1028.0068,-53.0257 1028.0068,-61.5834"></path>
<polygon fill="#000000" stroke="#000000" points="1024.5069,-61.5867 1028.0068,-71.5867 1031.5069,-61.5868 1024.5069,-61.5867"></polygon>
</g>
<!-- Semiring -->
<g id="node10" class="node">
<title>Semiring</title>
<g id="a_node10"><a xlink:href="./modules/Semiring.ts.html" xlink:title="Semiring">
<ellipse fill="#fdf4aa" stroke="#000000" cx="1028.0068" cy="-162" rx="49.2512" ry="18"></ellipse>
<text text-anchor="middle" x="1028.0068" y="-157.8" font-family="arial" font-size="14.00" fill="#000000">Semiring</text>
</a>
</g>
</g>
<!-- Ring&#45;&gt;Semiring -->
<g id="edge7" class="edge">
<title>Ring-&gt;Semiring</title>
<path fill="none" stroke="#000000" d="M1028.0068,-108.1686C1028.0068,-115.869 1028.0068,-125.0257 1028.0068,-133.5834"></path>
<polygon fill="#000000" stroke="#000000" points="1024.5069,-133.5867 1028.0068,-143.5867 1031.5069,-133.5868 1024.5069,-133.5867"></polygon>
</g>
<!-- Ord -->
<g id="node11" class="node">
<title>Ord</title>
<g id="a_node11"><a xlink:href="./modules/Ord.ts.html" xlink:title="Ord">
<ellipse fill="#fc81bf" stroke="#000000" cx="1134.0068" cy="-90" rx="27.2641" ry="18"></ellipse>
<text text-anchor="middle" x="1134.0068" y="-85.8" font-family="arial" font-size="14.00" fill="#000000">Ord</text>
</a>
</g>
</g>
<!-- Eq -->
<g id="node12" class="node">
<title>Eq</title>
<g id="a_node12"><a xlink:href="./modules/Eq.ts.html" xlink:title="Eq">
<ellipse fill="#fc81bf" stroke="#000000" cx="1134.0068" cy="-162" rx="38.3165" ry="18"></ellipse>
<text text-anchor="middle" x="1134.0068" y="-157.8" font-family="arial" font-size="14.00" fill="#000000">Eq</text>
</a>
</g>
</g>
<!-- Ord&#45;&gt;Eq -->
<g id="edge9" class="edge">
<title>Ord-&gt;Eq</title>
<path fill="none" stroke="#000000" d="M1134.0068,-108.1686C1134.0068,-115.869 1134.0068,-125.0257 1134.0068,-133.5834"></path>
<polygon fill="#000000" stroke="#000000" points="1130.5069,-133.5867 1134.0068,-143.5867 1137.5069,-133.5868 1130.5069,-133.5867"></polygon>
</g>
<!-- Bounded -->
<g id="node13" class="node">
<title>Bounded</title>
<g id="a_node13"><a xlink:href="./modules/Bounded.ts.html" xlink:title="Bounded">
<ellipse fill="#fecfe6" stroke="#000000" cx="1134.0068" cy="-18" rx="49.8737" ry="18"></ellipse>
<text text-anchor="middle" x="1134.0068" y="-13.8" font-family="arial" font-size="14.00" fill="#000000">Bounded</text>
</a>
</g>
</g>
<!-- Bounded&#45;&gt;Ord -->
<g id="edge8" class="edge">
<title>Bounded-&gt;Ord</title>
<path fill="none" stroke="#000000" d="M1134.0068,-36.1686C1134.0068,-43.869 1134.0068,-53.0257 1134.0068,-61.5834"></path>
<polygon fill="#000000" stroke="#000000" points="1130.5069,-61.5867 1134.0068,-71.5867 1137.5069,-61.5868 1130.5069,-61.5867"></polygon>
</g>
<!-- Category -->
<g id="node14" class="node">
<title>Category</title>
<g id="a_node14"><a xlink:href="./modules/Category.ts.html" xlink:title="Category">
<ellipse fill="#fdf4aa" stroke="#000000" cx="1252.0068" cy="-18" rx="50.4168" ry="18"></ellipse>
<text text-anchor="middle" x="1252.0068" y="-13.8" font-family="arial" font-size="14.00" fill="#000000">Category</text>
</a>
</g>
</g>
<!-- Semigroupoid -->
<g id="node15" class="node">
<title>Semigroupoid</title>
<g id="a_node15"><a xlink:href="./modules/Semigroupoid.ts.html" xlink:title="Semigroupoid">
<ellipse fill="#fdf4aa" stroke="#000000" cx="1252.0068" cy="-90" rx="70.6974" ry="18"></ellipse>
<text text-anchor="middle" x="1252.0068" y="-85.8" font-family="arial" font-size="14.00" fill="#000000">Semigroupoid</text>
</a>
</g>
</g>
<!-- Category&#45;&gt;Semigroupoid -->
<g id="edge10" class="edge">
<title>Category-&gt;Semigroupoid</title>
<path fill="none" stroke="#000000" d="M1252.0068,-36.1686C1252.0068,-43.869 1252.0068,-53.0257 1252.0068,-61.5834"></path>
<polygon fill="#000000" stroke="#000000" points="1248.5069,-61.5867 1252.0068,-71.5867 1255.5069,-61.5868 1248.5069,-61.5867"></polygon>
</g>
<!-- Alternative -->
<g id="node16" class="node">
<title>Alternative</title>
<g id="a_node16"><a xlink:href="./modules/Alternative.ts.html" xlink:title="Alternative">
<ellipse fill="#659dfe" stroke="#000000" cx="287.0068" cy="-18" rx="56.7929" ry="18"></ellipse>
<text text-anchor="middle" x="287.0068" y="-13.8" font-family="arial" font-size="14.00" fill="#000000">Alternative</text>
</a>
</g>
</g>
<!-- Applicative -->
<g id="node17" class="node">
<title>Applicative</title>
<g id="a_node17"><a xlink:href="./modules/Applicative.ts.html" xlink:title="Applicative">
<ellipse fill="#659dfe" stroke="#000000" cx="373.0068" cy="-90" rx="57.9391" ry="18"></ellipse>
<text text-anchor="middle" x="373.0068" y="-85.8" font-family="arial" font-size="14.00" fill="#000000">Applicative</text>
</a>
</g>
</g>
<!-- Alternative&#45;&gt;Applicative -->
<g id="edge14" class="edge">
<title>Alternative-&gt;Applicative</title>
<path fill="none" stroke="#000000" d="M307.3876,-35.063C318.6334,-44.478 332.7646,-56.3088 345.0304,-66.5779"></path>
<polygon fill="#000000" stroke="#000000" points="342.8579,-69.3237 352.7723,-73.0595 347.3515,-63.9564 342.8579,-69.3237"></polygon>
</g>
<!-- Alt -->
<g id="node23" class="node">
<title>Alt</title>
<g id="a_node23"><a xlink:href="./modules/Alt.ts.html" xlink:title="Alt">
<ellipse fill="#bfd7ff" stroke="#000000" cx="289.0068" cy="-162" rx="27" ry="18"></ellipse>
<text text-anchor="middle" x="289.0068" y="-157.8" font-family="arial" font-size="14.00" fill="#000000">Alt</text>
</a>
</g>
</g>
<!-- Alternative&#45;&gt;Alt -->
<g id="edge15" class="edge">
<title>Alternative-&gt;Alt</title>
<path fill="none" stroke="#000000" d="M287.2601,-36.2377C287.6013,-60.799 288.2117,-104.7526 288.613,-133.6459"></path>
<polygon fill="#000000" stroke="#000000" points="285.1169,-133.96 288.7556,-143.9104 292.1163,-133.8627 285.1169,-133.96"></polygon>
</g>
<!-- Apply -->
<g id="node24" class="node">
<title>Apply</title>
<g id="a_node24"><a xlink:href="./modules/Apply.ts.html" xlink:title="Apply">
<ellipse fill="#bfd7ff" stroke="#000000" cx="485.0068" cy="-162" rx="35.3703" ry="18"></ellipse>
<text text-anchor="middle" x="485.0068" y="-157.8" font-family="arial" font-size="14.00" fill="#000000">Apply</text>
</a>
</g>
</g>
<!-- Applicative&#45;&gt;Apply -->
<g id="edge17" class="edge">
<title>Applicative-&gt;Apply</title>
<path fill="none" stroke="#000000" d="M398.4214,-106.3379C415.0193,-117.008 436.7884,-131.0024 454.3461,-142.2896"></path>
<polygon fill="#000000" stroke="#000000" points="452.7897,-145.4498 463.0942,-147.9133 456.575,-139.5615 452.7897,-145.4498"></polygon>
</g>
<!-- Compactable -->
<g id="node18" class="node">
<title>Compactable</title>
<g id="a_node18"><a xlink:href="./modules/Compactable.ts.html" xlink:title="Compactable">
<ellipse fill="#659dfe" stroke="#000000" cx="195.0068" cy="-234" rx="67.8319" ry="18"></ellipse>
<text text-anchor="middle" x="195.0068" y="-229.8" font-family="arial" font-size="14.00" fill="#000000">Compactable</text>
</a>
</g>
</g>
<!-- Foldable -->
<g id="node19" class="node">
<title>Foldable</title>
<g id="a_node19"><a xlink:href="./modules/Foldable.ts.html" xlink:title="Foldable">
<ellipse fill="#659dfe" stroke="#000000" cx="61.0068" cy="-234" rx="48.1264" ry="18"></ellipse>
<text text-anchor="middle" x="61.0068" y="-229.8" font-family="arial" font-size="14.00" fill="#000000">Foldable</text>
</a>
</g>
</g>
<!-- Monad -->
<g id="node21" class="node">
<title>Monad</title>
<g id="a_node21"><a xlink:href="./modules/Monad.ts.html" xlink:title="Monad">
<ellipse fill="#659dfe" stroke="#000000" cx="402.0068" cy="-18" rx="40.606" ry="18"></ellipse>
<text text-anchor="middle" x="402.0068" y="-13.8" font-family="arial" font-size="14.00" fill="#000000">Monad</text>
</a>
</g>
</g>
<!-- Monad&#45;&gt;Applicative -->
<g id="edge16" class="edge">
<title>Monad-&gt;Applicative</title>
<path fill="none" stroke="#000000" d="M394.8383,-35.7978C391.5864,-43.8713 387.667,-53.6024 384.0518,-62.578"></path>
<polygon fill="#000000" stroke="#000000" points="380.784,-61.3234 380.2943,-71.9069 387.2771,-63.9387 380.784,-61.3234"></polygon>
</g>
<!-- Chain -->
<g id="node26" class="node">
<title>Chain</title>
<g id="a_node26"><a xlink:href="./modules/Chain.ts.html" xlink:title="Chain">
<ellipse fill="#bfd7ff" stroke="#000000" cx="485.0068" cy="-90" rx="36.0129" ry="18"></ellipse>
<text text-anchor="middle" x="485.0068" y="-85.8" font-family="arial" font-size="14.00" fill="#000000">Chain</text>
</a>
</g>
</g>
<!-- Monad&#45;&gt;Chain -->
<g id="edge19" class="edge">
<title>Monad-&gt;Chain</title>
<path fill="none" stroke="#000000" d="M420.8408,-34.3379C432.1404,-44.14 446.674,-56.7474 459.0512,-67.4843"></path>
<polygon fill="#000000" stroke="#000000" points="456.9704,-70.3126 466.8178,-74.2216 461.5574,-65.0249 456.9704,-70.3126"></polygon>
</g>
<!-- Traversable -->
<g id="node22" class="node">
<title>Traversable</title>
<g id="a_node22"><a xlink:href="./modules/Traversable.ts.html" xlink:title="Traversable">
<ellipse fill="#659dfe" stroke="#000000" cx="62.0068" cy="-162" rx="62.0137" ry="18"></ellipse>
<text text-anchor="middle" x="62.0068" y="-157.8" font-family="arial" font-size="14.00" fill="#000000">Traversable</text>
</a>
</g>
</g>
<!-- Traversable&#45;&gt;Foldable -->
<g id="edge24" class="edge">
<title>Traversable-&gt;Foldable</title>
<path fill="none" stroke="#000000" d="M61.7545,-180.1686C61.6475,-187.869 61.5204,-197.0257 61.4015,-205.5834"></path>
<polygon fill="#000000" stroke="#000000" points="57.9019,-205.5391 61.2626,-215.5867 64.9012,-205.6363 57.9019,-205.5391"></polygon>
</g>
<!-- Traversable&#45;&gt;Functor -->
<g id="edge25" class="edge">
<title>Traversable-&gt;Functor</title>
<path fill="none" stroke="#000000" d="M108.5427,-174.0497C116.6845,-176.0858 125.0836,-178.1406 133.0068,-180 202.3666,-196.2775 282.9866,-213.363 333.5073,-223.8497"></path>
<polygon fill="#000000" stroke="#000000" points="333.0048,-227.3198 343.5068,-225.9207 334.4245,-220.4653 333.0048,-227.3198"></polygon>
</g>
<!-- Alt&#45;&gt;Functor -->
<g id="edge12" class="edge">
<title>Alt-&gt;Functor</title>
<path fill="none" stroke="#000000" d="M307.131,-175.8823C320.3652,-186.0191 338.5864,-199.9758 353.8557,-211.6715"></path>
<polygon fill="#000000" stroke="#000000" points="351.9175,-214.5956 361.9845,-217.8978 356.174,-209.0384 351.9175,-214.5956"></polygon>
</g>
<!-- Apply&#45;&gt;Functor -->
<g id="edge18" class="edge">
<title>Apply-&gt;Functor</title>
<path fill="none" stroke="#000000" d="M463.8724,-176.9184C449.3973,-187.1361 429.9663,-200.8521 413.7795,-212.2781"></path>
<polygon fill="#000000" stroke="#000000" points="411.324,-209.7272 405.1727,-218.3535 415.3608,-215.446 411.324,-209.7272"></polygon>
</g>
<!-- Bifunctor -->
<g id="node25" class="node">
<title>Bifunctor</title>
<g id="a_node25"><a xlink:href="./modules/Bifunctor.ts.html" xlink:title="Bifunctor">
<ellipse fill="#bfd7ff" stroke="#000000" cx="383.0068" cy="-162" rx="49.2705" ry="18"></ellipse>
<text text-anchor="middle" x="383.0068" y="-157.8" font-family="arial" font-size="14.00" fill="#000000">Bifunctor</text>
</a>
</g>
</g>
<!-- Bifunctor&#45;&gt;Functor -->
<g id="edge13" class="edge">
<title>Bifunctor-&gt;Functor</title>
<path fill="none" stroke="#000000" d="M383.0068,-180.1686C383.0068,-187.869 383.0068,-197.0257 383.0068,-205.5834"></path>
<polygon fill="#000000" stroke="#000000" points="379.5069,-205.5867 383.0068,-215.5867 386.5069,-205.5868 379.5069,-205.5867"></polygon>
</g>
<!-- Chain&#45;&gt;Apply -->
<g id="edge20" class="edge">
<title>Chain-&gt;Apply</title>
<path fill="none" stroke="#000000" d="M485.0068,-108.1686C485.0068,-115.869 485.0068,-125.0257 485.0068,-133.5834"></path>
<polygon fill="#000000" stroke="#000000" points="481.5069,-133.5867 485.0068,-143.5867 488.5069,-133.5868 481.5069,-133.5867"></polygon>
</g>
<!-- ChainRec -->
<g id="node27" class="node">
<title>ChainRec</title>
<g id="a_node27"><a xlink:href="./modules/ChainRec.ts.html" xlink:title="ChainRec">
<ellipse fill="#bfd7ff" stroke="#000000" cx="514.0068" cy="-18" rx="53.3476" ry="18"></ellipse>
<text text-anchor="middle" x="514.0068" y="-13.8" font-family="arial" font-size="14.00" fill="#000000">ChainRec</text>
</a>
</g>
</g>
<!-- ChainRec&#45;&gt;Chain -->
<g id="edge21" class="edge">
<title>ChainRec-&gt;Chain</title>
<path fill="none" stroke="#000000" d="M506.6889,-36.1686C503.4704,-44.1594 499.6204,-53.7181 496.0636,-62.5486"></path>
<polygon fill="#000000" stroke="#000000" points="492.7116,-61.5031 492.222,-72.0866 499.2047,-64.1184 492.7116,-61.5031"></polygon>
</g>
<!-- Comonad -->
<g id="node28" class="node">
<title>Comonad</title>
<g id="a_node28"><a xlink:href="./modules/Comonad.ts.html" xlink:title="Comonad">
<ellipse fill="#bfd7ff" stroke="#000000" cx="592.0068" cy="-90" rx="52.7854" ry="18"></ellipse>
<text text-anchor="middle" x="592.0068" y="-85.8" font-family="arial" font-size="14.00" fill="#000000">Comonad</text>
</a>
</g>
</g>
<!-- Extend -->
<g id="node29" class="node">
<title>Extend</title>
<g id="a_node29"><a xlink:href="./modules/Extend.ts.html" xlink:title="Extend">
<ellipse fill="#bfd7ff" stroke="#000000" cx="583.0068" cy="-162" rx="41.1877" ry="18"></ellipse>
<text text-anchor="middle" x="583.0068" y="-157.8" font-family="arial" font-size="14.00" fill="#000000">Extend</text>
</a>
</g>
</g>
<!-- Comonad&#45;&gt;Extend -->
<g id="edge22" class="edge">
<title>Comonad-&gt;Extend</title>
<path fill="none" stroke="#000000" d="M589.7357,-108.1686C588.7732,-115.869 587.6286,-125.0257 586.5589,-133.5834"></path>
<polygon fill="#000000" stroke="#000000" points="583.0759,-133.2298 585.3085,-143.5867 590.0219,-134.0981 583.0759,-133.2298"></polygon>
</g>
<!-- Extend&#45;&gt;Functor -->
<g id="edge23" class="edge">
<title>Extend-&gt;Functor</title>
<path fill="none" stroke="#000000" d="M550.8734,-173.568C516.9169,-185.7924 463.1928,-205.133 425.6967,-218.6316"></path>
<polygon fill="#000000" stroke="#000000" points="424.2824,-215.4208 416.059,-222.1012 426.6535,-222.0071 424.2824,-215.4208"></polygon>
</g>
<!-- Filterable -->
<g id="node30" class="node">
<title>Filterable</title>
<g id="a_node30"><a xlink:href="./modules/Filterable.ts.html" xlink:title="Filterable">
<ellipse fill="#bfd7ff" stroke="#000000" cx="193.0068" cy="-162" rx="50.9735" ry="18"></ellipse>
<text text-anchor="middle" x="193.0068" y="-157.8" font-family="arial" font-size="14.00" fill="#000000">Filterable</text>
</a>
</g>
</g>
<!-- Filterable&#45;&gt;Compactable -->
<g id="edge27" class="edge">
<title>Filterable-&gt;Compactable</title>
<path fill="none" stroke="#000000" d="M193.5115,-180.1686C193.7254,-187.869 193.9798,-197.0257 194.2175,-205.5834"></path>
<polygon fill="#000000" stroke="#000000" points="190.7189,-205.6878 194.4953,-215.5867 197.7162,-205.4934 190.7189,-205.6878"></polygon>
</g>
<!-- Filterable&#45;&gt;Functor -->
<g id="edge26" class="edge">
<title>Filterable-&gt;Functor</title>
<path fill="none" stroke="#000000" d="M227.8558,-175.2059C259.7404,-187.2885 306.982,-205.1906 340.953,-218.0638"></path>
<polygon fill="#000000" stroke="#000000" points="340.0062,-221.4479 350.5976,-221.7186 342.4868,-214.9021 340.0062,-221.4479"></polygon>
</g>
<!-- Witherable -->
<g id="node31" class="node">
<title>Witherable</title>
<g id="a_node31"><a xlink:href="./modules/Witherable.ts.html" xlink:title="Witherable">
<ellipse fill="#bfd7ff" stroke="#000000" cx="128.0068" cy="-90" rx="57.3553" ry="18"></ellipse>
<text text-anchor="middle" x="128.0068" y="-85.8" font-family="arial" font-size="14.00" fill="#000000">Witherable</text>
</a>
</g>
</g>
<!-- Witherable&#45;&gt;Traversable -->
<g id="edge28" class="edge">
<title>Witherable-&gt;Traversable</title>
<path fill="none" stroke="#000000" d="M112.0301,-107.4292C103.9023,-116.2959 93.8773,-127.2322 84.9412,-136.9806"></path>
<polygon fill="#000000" stroke="#000000" points="82.2424,-134.7451 78.0652,-144.4818 87.4025,-139.4752 82.2424,-134.7451"></polygon>
</g>
<!-- Witherable&#45;&gt;Filterable -->
<g id="edge29" class="edge">
<title>Witherable-&gt;Filterable</title>
<path fill="none" stroke="#000000" d="M143.7415,-107.4292C151.8054,-116.3615 161.7656,-127.3944 170.6153,-137.1971"></path>
<polygon fill="#000000" stroke="#000000" points="168.118,-139.654 177.417,-144.7313 173.3139,-134.9632 168.118,-139.654"></polygon>
</g>
<!-- BooleanAlgebra -->
<g id="node32" class="node">
<title>BooleanAlgebra</title>
<g id="a_node32"><a xlink:href="./modules/BooleanAlgebra.ts.html" xlink:title="BooleanAlgebra">
<ellipse fill="#fdf4aa" stroke="#000000" cx="1418.0068" cy="-18" rx="79.965" ry="18"></ellipse>
<text text-anchor="middle" x="1418.0068" y="-13.8" font-family="arial" font-size="14.00" fill="#000000">BooleanAlgebra</text>
</a>
</g>
</g>
<!-- HeytingAlgebra -->
<g id="node38" class="node">
<title>HeytingAlgebra</title>
<g id="a_node38"><a xlink:href="./modules/HeytingAlgebra.ts.html" xlink:title="HeytingAlgebra">
<ellipse fill="#fdf4aa" stroke="#000000" cx="1418.0068" cy="-90" rx="77.0777" ry="18"></ellipse>
<text text-anchor="middle" x="1418.0068" y="-85.8" font-family="arial" font-size="14.00" fill="#000000">HeytingAlgebra</text>
</a>
</g>
</g>
<!-- BooleanAlgebra&#45;&gt;HeytingAlgebra -->
<g id="edge30" class="edge">
<title>BooleanAlgebra-&gt;HeytingAlgebra</title>
<path fill="none" stroke="#000000" d="M1418.0068,-36.1686C1418.0068,-43.869 1418.0068,-53.0257 1418.0068,-61.5834"></path>
<polygon fill="#000000" stroke="#000000" points="1414.5069,-61.5867 1418.0068,-71.5867 1421.5069,-61.5868 1414.5069,-61.5867"></polygon>
</g>
<!-- BoundedDistributiveLattice -->
<g id="node33" class="node">
<title>BoundedDistributiveLattice</title>
<g id="a_node33"><a xlink:href="./modules/BoundedDistributiveLattice.ts.html" xlink:title="BoundedDistributiveLattice">
<ellipse fill="#fdf4aa" stroke="#000000" cx="1418.0068" cy="-162" rx="125.7481" ry="18"></ellipse>
<text text-anchor="middle" x="1418.0068" y="-157.8" font-family="arial" font-size="14.00" fill="#000000">BoundedDistributiveLattice</text>
</a>
</g>
</g>
<!-- BoundedLattice -->
<g id="node35" class="node">
<title>BoundedLattice</title>
<g id="a_node35"><a xlink:href="./modules/BoundedLattice.ts.html" xlink:title="BoundedLattice">
<ellipse fill="#fdf4aa" stroke="#000000" cx="1509.0068" cy="-234" rx="78.2603" ry="18"></ellipse>
<text text-anchor="middle" x="1509.0068" y="-229.8" font-family="arial" font-size="14.00" fill="#000000">BoundedLattice</text>
</a>
</g>
</g>
<!-- BoundedDistributiveLattice&#45;&gt;BoundedLattice -->
<g id="edge32" class="edge">
<title>BoundedDistributiveLattice-&gt;BoundedLattice</title>
<path fill="none" stroke="#000000" d="M1440.5012,-179.7978C1452.1584,-189.0211 1466.5497,-200.4075 1479.1281,-210.3597"></path>
<polygon fill="#000000" stroke="#000000" points="1477.0713,-213.1953 1487.0852,-216.6554 1481.4147,-207.7058 1477.0713,-213.1953"></polygon>
</g>
<!-- DistributiveLattice -->
<g id="node37" class="node">
<title>DistributiveLattice</title>
<g id="a_node37"><a xlink:href="./modules/DistributiveLattice.ts.html" xlink:title="DistributiveLattice">
<ellipse fill="#fdf4aa" stroke="#000000" cx="1326.0068" cy="-234" rx="87.4486" ry="18"></ellipse>
<text text-anchor="middle" x="1326.0068" y="-229.8" font-family="arial" font-size="14.00" fill="#000000">DistributiveLattice</text>
</a>
</g>
</g>
<!-- BoundedDistributiveLattice&#45;&gt;DistributiveLattice -->
<g id="edge34" class="edge">
<title>BoundedDistributiveLattice-&gt;DistributiveLattice</title>
<path fill="none" stroke="#000000" d="M1395.2652,-179.7978C1383.5672,-188.9527 1369.1459,-200.239 1356.4968,-210.1383"></path>
<polygon fill="#000000" stroke="#000000" points="1354.2048,-207.4876 1348.4868,-216.407 1358.519,-213.0001 1354.2048,-207.4876"></polygon>
</g>
<!-- BoundedJoinSemilattice -->
<g id="node34" class="node">
<title>BoundedJoinSemilattice</title>
<g id="a_node34"><a xlink:href="./modules/BoundedJoinSemilattice.ts.html" xlink:title="BoundedJoinSemilattice">
<ellipse fill="#fdf4aa" stroke="#000000" cx="1498.0068" cy="-306" rx="114.7146" ry="18"></ellipse>
<text text-anchor="middle" x="1498.0068" y="-301.8" font-family="arial" font-size="14.00" fill="#000000">BoundedJoinSemilattice</text>
</a>
</g>
</g>
<!-- JoinSemilattice -->
<g id="node39" class="node">
<title>JoinSemilattice</title>
<g id="a_node39"><a xlink:href="./modules/JoinSemilattice.ts.html" xlink:title="JoinSemilattice">
<ellipse fill="#fdf4aa" stroke="#000000" cx="1412.0068" cy="-378" rx="75.9145" ry="18"></ellipse>
<text text-anchor="middle" x="1412.0068" y="-373.8" font-family="arial" font-size="14.00" fill="#000000">JoinSemilattice</text>
</a>
</g>
</g>
<!-- BoundedJoinSemilattice&#45;&gt;JoinSemilattice -->
<g id="edge38" class="edge">
<title>BoundedJoinSemilattice-&gt;JoinSemilattice</title>
<path fill="none" stroke="#000000" d="M1476.7484,-323.7978C1465.8366,-332.9332 1452.39,-344.1908 1440.584,-354.075"></path>
<polygon fill="#000000" stroke="#000000" points="1438.1448,-351.5524 1432.724,-360.6554 1442.6384,-356.9197 1438.1448,-351.5524"></polygon>
</g>
<!-- BoundedLattice&#45;&gt;BoundedJoinSemilattice -->
<g id="edge33" class="edge">
<title>BoundedLattice-&gt;BoundedJoinSemilattice</title>
<path fill="none" stroke="#000000" d="M1506.2311,-252.1686C1505.0546,-259.869 1503.6557,-269.0257 1502.3483,-277.5834"></path>
<polygon fill="#000000" stroke="#000000" points="1498.8704,-277.1728 1500.82,-287.5867 1505.7902,-278.2301 1498.8704,-277.1728"></polygon>
</g>
<!-- BoundedMeetSemilattice -->
<g id="node36" class="node">
<title>BoundedMeetSemilattice</title>
<g id="a_node36"><a xlink:href="./modules/BoundedMeetSemilattice.ts.html" xlink:title="BoundedMeetSemilattice">
<ellipse fill="#fdf4aa" stroke="#000000" cx="1749.0068" cy="-306" rx="118.2258" ry="18"></ellipse>
<text text-anchor="middle" x="1749.0068" y="-301.8" font-family="arial" font-size="14.00" fill="#000000">BoundedMeetSemilattice</text>
</a>
</g>
</g>
<!-- BoundedLattice&#45;&gt;BoundedMeetSemilattice -->
<g id="edge39" class="edge">
<title>BoundedLattice-&gt;BoundedMeetSemilattice</title>
<path fill="none" stroke="#000000" d="M1556.7101,-248.311C1593.5864,-259.3739 1644.9848,-274.7934 1685.3662,-286.9078"></path>
<polygon fill="#000000" stroke="#000000" points="1684.5318,-290.3115 1695.1158,-289.8327 1686.5432,-283.6067 1684.5318,-290.3115"></polygon>
</g>
<!-- MeetSemilattice -->
<g id="node41" class="node">
<title>MeetSemilattice</title>
<g id="a_node41"><a xlink:href="./modules/MeetSemilattice.ts.html" xlink:title="MeetSemilattice">
<ellipse fill="#fdf4aa" stroke="#000000" cx="1667.0068" cy="-378" rx="79.9262" ry="18"></ellipse>
<text text-anchor="middle" x="1667.0068" y="-373.8" font-family="arial" font-size="14.00" fill="#000000">MeetSemilattice</text>
</a>
</g>
</g>
<!-- BoundedMeetSemilattice&#45;&gt;MeetSemilattice -->
<g id="edge40" class="edge">
<title>BoundedMeetSemilattice-&gt;MeetSemilattice</title>
<path fill="none" stroke="#000000" d="M1728.7372,-323.7978C1718.5093,-332.7783 1705.9457,-343.8098 1694.8286,-353.5711"></path>
<polygon fill="#000000" stroke="#000000" points="1692.2484,-351.1789 1687.0433,-360.407 1696.8671,-356.439 1692.2484,-351.1789"></polygon>
</g>
<!-- Lattice -->
<g id="node40" class="node">
<title>Lattice</title>
<g id="a_node40"><a xlink:href="./modules/Lattice.ts.html" xlink:title="Lattice">
<ellipse fill="#fdf4aa" stroke="#000000" cx="1326.0068" cy="-306" rx="39.4602" ry="18"></ellipse>
<text text-anchor="middle" x="1326.0068" y="-301.8" font-family="arial" font-size="14.00" fill="#000000">Lattice</text>
</a>
</g>
</g>
<!-- DistributiveLattice&#45;&gt;Lattice -->
<g id="edge35" class="edge">
<title>DistributiveLattice-&gt;Lattice</title>
<path fill="none" stroke="#000000" d="M1326.0068,-252.1686C1326.0068,-259.869 1326.0068,-269.0257 1326.0068,-277.5834"></path>
<polygon fill="#000000" stroke="#000000" points="1322.5069,-277.5867 1326.0068,-287.5867 1329.5069,-277.5868 1322.5069,-277.5867"></polygon>
</g>
<!-- HeytingAlgebra&#45;&gt;BoundedDistributiveLattice -->
<g id="edge31" class="edge">
<title>HeytingAlgebra-&gt;BoundedDistributiveLattice</title>
<path fill="none" stroke="#000000" d="M1418.0068,-108.1686C1418.0068,-115.869 1418.0068,-125.0257 1418.0068,-133.5834"></path>
<polygon fill="#000000" stroke="#000000" points="1414.5069,-133.5867 1418.0068,-143.5867 1421.5069,-133.5868 1414.5069,-133.5867"></polygon>
</g>
<!-- Lattice&#45;&gt;JoinSemilattice -->
<g id="edge36" class="edge">
<title>Lattice-&gt;JoinSemilattice</title>
<path fill="none" stroke="#000000" d="M1345.093,-321.9791C1356.2967,-331.359 1370.6762,-343.3976 1383.2321,-353.9095"></path>
<polygon fill="#000000" stroke="#000000" points="1381.2537,-356.8178 1391.1681,-360.5536 1385.7472,-351.4505 1381.2537,-356.8178"></polygon>
</g>
<!-- Lattice&#45;&gt;MeetSemilattice -->
<g id="edge37" class="edge">
<title>Lattice-&gt;MeetSemilattice</title>
<path fill="none" stroke="#000000" d="M1355.6954,-318.062C1361.6942,-320.235 1368.0034,-322.3352 1374.0068,-324 1445.3904,-343.7954 1528.6042,-358.3425 1588.0711,-367.3182"></path>
<polygon fill="#000000" stroke="#000000" points="1587.7398,-370.8074 1598.1465,-368.82 1588.7718,-363.8839 1587.7398,-370.8074"></polygon>
</g>
</g>
</svg>
