<?xml version="1.0" encoding="UTF-8" standalone="no"?>
<!DOCTYPE svg PUBLIC "-//W3C//DTD SVG 1.1//EN"
 "http://www.w3.org/Graphics/SVG/1.1/DTD/svg11.dtd">
<!-- Generated by graphviz version 2.40.1 (0)
 -->
<!-- Title: G Pages: 1 -->
<svg width="1792pt" height="404pt"
 viewBox="0.00 0.00 1792.28 404.00" xmlns="http://www.w3.org/2000/svg" xmlns:xlink="http://www.w3.org/1999/xlink">
<g id="graph0" class="graph" transform="scale(1 1) rotate(0) translate(4 400)">
<title>G</title>
<polygon fill="#ffffff" stroke="transparent" points="-4,4 -4,-400 1788.2849,-400 1788.2849,4 -4,4"/>
<!-- Choice -->
<g id="node1" class="node">
<title>Choice</title>
<g id="a_node1"><a xlink:href="./modules/Choice.ts.html" xlink:title="Choice">
<ellipse fill="#b3abf4" stroke="#000000" cx="770.4948" cy="-90" rx="38.9931" ry="18"/>
<text text-anchor="middle" x="770.4948" y="-86.3" font-family="arial" font-size="14.00" fill="#000000">Choice</text>
</a>
</g>
</g>
<!-- Profunctor -->
<g id="node2" class="node">
<title>Profunctor</title>
<g id="a_node2"><a xlink:href="./modules/Profunctor.ts.html" xlink:title="Profunctor">
<ellipse fill="#b3abf4" stroke="#000000" cx="675.4948" cy="-162" rx="52.7911" ry="18"/>
<text text-anchor="middle" x="675.4948" y="-158.3" font-family="arial" font-size="14.00" fill="#000000">Profunctor</text>
</a>
</g>
</g>
<!-- Choice&#45;&gt;Profunctor -->
<g id="edge2" class="edge">
<title>Choice&#45;&gt;Profunctor</title>
<path fill="none" stroke="#000000" d="M749.8812,-105.6229C736.9258,-115.4418 719.9915,-128.2762 705.5537,-139.2185"/>
<polygon fill="#000000" stroke="#000000" points="703.246,-136.5758 697.3904,-145.4055 707.4742,-142.1546 703.246,-136.5758"/>
</g>
<!-- Functor -->
<g id="node19" class="node">
<title>Functor</title>
<g id="a_node19"><a xlink:href="./modules/Functor.ts.html" xlink:title="Functor">
<ellipse fill="#659dfe" stroke="#000000" cx="368.4948" cy="-234" rx="41.6928" ry="18"/>
<text text-anchor="middle" x="368.4948" y="-230.3" font-family="arial" font-size="14.00" fill="#000000">Functor</text>
</a>
</g>
</g>
<!-- Profunctor&#45;&gt;Functor -->
<g id="edge10" class="edge">
<title>Profunctor&#45;&gt;Functor</title>
<path fill="none" stroke="#000000" d="M635.0104,-173.5519C626.9102,-175.7669 618.4469,-178.0131 610.4948,-180 543.4322,-196.7564 465.2851,-213.7381 416.3452,-224.0696"/>
<polygon fill="#000000" stroke="#000000" points="415.4247,-220.6865 406.3598,-226.1708 416.8662,-227.5365 415.4247,-220.6865"/>
</g>
<!-- Strong -->
<g id="node3" class="node">
<title>Strong</title>
<g id="a_node3"><a xlink:href="./modules/Strong.ts.html" xlink:title="Strong">
<ellipse fill="#b3abf4" stroke="#000000" cx="675.4948" cy="-90" rx="37.8943" ry="18"/>
<text text-anchor="middle" x="675.4948" y="-86.3" font-family="arial" font-size="14.00" fill="#000000">Strong</text>
</a>
</g>
</g>
<!-- Strong&#45;&gt;Profunctor -->
<g id="edge1" class="edge">
<title>Strong&#45;&gt;Profunctor</title>
<path fill="none" stroke="#000000" d="M675.4948,-108.1686C675.4948,-115.869 675.4948,-125.0257 675.4948,-133.5834"/>
<polygon fill="#000000" stroke="#000000" points="671.9949,-133.5867 675.4948,-143.5867 678.9949,-133.5868 671.9949,-133.5867"/>
</g>
<!-- Group -->
<g id="node4" class="node">
<title>Group</title>
<g id="a_node4"><a xlink:href="./modules/Group.ts.html" xlink:title="Group">
<ellipse fill="#fc81bf" stroke="#000000" cx="867.4948" cy="-18" rx="35.9954" ry="18"/>
<text text-anchor="middle" x="867.4948" y="-14.3" font-family="arial" font-size="14.00" fill="#000000">Group</text>
</a>
</g>
</g>
<!-- Monoid -->
<g id="node5" class="node">
<title>Monoid</title>
<g id="a_node5"><a xlink:href="./modules/Monoid.ts.html" xlink:title="Monoid">
<ellipse fill="#fc81bf" stroke="#000000" cx="867.4948" cy="-90" rx="40.0939" ry="18"/>
<text text-anchor="middle" x="867.4948" y="-86.3" font-family="arial" font-size="14.00" fill="#000000">Monoid</text>
</a>
</g>
</g>
<!-- Group&#45;&gt;Monoid -->
<g id="edge3" class="edge">
<title>Group&#45;&gt;Monoid</title>
<path fill="none" stroke="#000000" d="M867.4948,-36.1686C867.4948,-43.869 867.4948,-53.0257 867.4948,-61.5834"/>
<polygon fill="#000000" stroke="#000000" points="863.9949,-61.5867 867.4948,-71.5867 870.9949,-61.5868 863.9949,-61.5867"/>
</g>
<!-- Semigroup -->
<g id="node6" class="node">
<title>Semigroup</title>
<g id="a_node6"><a xlink:href="./modules/Semigroup.ts.html" xlink:title="Semigroup">
<ellipse fill="#fc81bf" stroke="#000000" cx="867.4948" cy="-162" rx="54.6905" ry="18"/>
<text text-anchor="middle" x="867.4948" y="-158.3" font-family="arial" font-size="14.00" fill="#000000">Semigroup</text>
</a>
</g>
</g>
<!-- Monoid&#45;&gt;Semigroup -->
<g id="edge4" class="edge">
<title>Monoid&#45;&gt;Semigroup</title>
<path fill="none" stroke="#000000" d="M867.4948,-108.1686C867.4948,-115.869 867.4948,-125.0257 867.4948,-133.5834"/>
<polygon fill="#000000" stroke="#000000" points="863.9949,-133.5867 867.4948,-143.5867 870.9949,-133.5868 863.9949,-133.5867"/>
</g>
<!-- Field -->
<g id="node7" class="node">
<title>Field</title>
<g id="a_node7"><a xlink:href="./modules/Field.ts.html" xlink:title="Field">
<ellipse fill="#fdf4aa" stroke="#000000" cx="986.4948" cy="-18" rx="30.5947" ry="18"/>
<text text-anchor="middle" x="986.4948" y="-14.3" font-family="arial" font-size="14.00" fill="#000000">Field</text>
</a>
</g>
</g>
<!-- Ring -->
<g id="node8" class="node">
<title>Ring</title>
<g id="a_node8"><a xlink:href="./modules/Ring.ts.html" xlink:title="Ring">
<ellipse fill="#fdf4aa" stroke="#000000" cx="986.4948" cy="-90" rx="29.4969" ry="18"/>
<text text-anchor="middle" x="986.4948" y="-86.3" font-family="arial" font-size="14.00" fill="#000000">Ring</text>
</a>
</g>
</g>
<!-- Field&#45;&gt;Ring -->
<g id="edge5" class="edge">
<title>Field&#45;&gt;Ring</title>
<path fill="none" stroke="#000000" d="M986.4948,-36.1686C986.4948,-43.869 986.4948,-53.0257 986.4948,-61.5834"/>
<polygon fill="#000000" stroke="#000000" points="982.9949,-61.5867 986.4948,-71.5867 989.9949,-61.5868 982.9949,-61.5867"/>
</g>
<!-- Semiring -->
<g id="node9" class="node">
<title>Semiring</title>
<g id="a_node9"><a xlink:href="./modules/Semiring.ts.html" xlink:title="Semiring">
<ellipse fill="#fdf4aa" stroke="#000000" cx="986.4948" cy="-162" rx="46.5926" ry="18"/>
<text text-anchor="middle" x="986.4948" y="-158.3" font-family="arial" font-size="14.00" fill="#000000">Semiring</text>
</a>
</g>
</g>
<!-- Ring&#45;&gt;Semiring -->
<g id="edge6" class="edge">
<title>Ring&#45;&gt;Semiring</title>
<path fill="none" stroke="#000000" d="M986.4948,-108.1686C986.4948,-115.869 986.4948,-125.0257 986.4948,-133.5834"/>
<polygon fill="#000000" stroke="#000000" points="982.9949,-133.5867 986.4948,-143.5867 989.9949,-133.5868 982.9949,-133.5867"/>
</g>
<!-- Ord -->
<g id="node10" class="node">
<title>Ord</title>
<g id="a_node10"><a xlink:href="./modules/Ord.ts.html" xlink:title="Ord">
<ellipse fill="#fc81bf" stroke="#000000" cx="1087.4948" cy="-90" rx="27" ry="18"/>
<text text-anchor="middle" x="1087.4948" y="-86.3" font-family="arial" font-size="14.00" fill="#000000">Ord</text>
</a>
</g>
</g>
<!-- Setoid -->
<g id="node11" class="node">
<title>Setoid</title>
<g id="a_node11"><a xlink:href="./modules/Setoid.ts.html" xlink:title="Setoid">
<ellipse fill="#fc81bf" stroke="#000000" cx="1087.4948" cy="-162" rx="36.2938" ry="18"/>
<text text-anchor="middle" x="1087.4948" y="-158.3" font-family="arial" font-size="14.00" fill="#000000">Setoid</text>
</a>
</g>
</g>
<!-- Ord&#45;&gt;Setoid -->
<g id="edge8" class="edge">
<title>Ord&#45;&gt;Setoid</title>
<path fill="none" stroke="#000000" d="M1087.4948,-108.1686C1087.4948,-115.869 1087.4948,-125.0257 1087.4948,-133.5834"/>
<polygon fill="#000000" stroke="#000000" points="1083.9949,-133.5867 1087.4948,-143.5867 1090.9949,-133.5868 1083.9949,-133.5867"/>
</g>
<!-- Bounded -->
<g id="node12" class="node">
<title>Bounded</title>
<g id="a_node12"><a xlink:href="./modules/Bounded.ts.html" xlink:title="Bounded">
<ellipse fill="#fecfe6" stroke="#000000" cx="1087.4948" cy="-18" rx="47.3916" ry="18"/>
<text text-anchor="middle" x="1087.4948" y="-14.3" font-family="arial" font-size="14.00" fill="#000000">Bounded</text>
</a>
</g>
</g>
<!-- Bounded&#45;&gt;Ord -->
<g id="edge7" class="edge">
<title>Bounded&#45;&gt;Ord</title>
<path fill="none" stroke="#000000" d="M1087.4948,-36.1686C1087.4948,-43.869 1087.4948,-53.0257 1087.4948,-61.5834"/>
<polygon fill="#000000" stroke="#000000" points="1083.9949,-61.5867 1087.4948,-71.5867 1090.9949,-61.5868 1083.9949,-61.5867"/>
</g>
<!-- Category -->
<g id="node13" class="node">
<title>Category</title>
<g id="a_node13"><a xlink:href="./modules/Category.ts.html" xlink:title="Category">
<ellipse fill="#fdf4aa" stroke="#000000" cx="1200.4948" cy="-18" rx="47.3916" ry="18"/>
<text text-anchor="middle" x="1200.4948" y="-14.3" font-family="arial" font-size="14.00" fill="#000000">Category</text>
</a>
</g>
</g>
<!-- Semigroupoid -->
<g id="node14" class="node">
<title>Semigroupoid</title>
<g id="a_node14"><a xlink:href="./modules/Semigroupoid.ts.html" xlink:title="Semigroupoid">
<ellipse fill="#fdf4aa" stroke="#000000" cx="1200.4948" cy="-90" rx="66.8882" ry="18"/>
<text text-anchor="middle" x="1200.4948" y="-86.3" font-family="arial" font-size="14.00" fill="#000000">Semigroupoid</text>
</a>
</g>
</g>
<!-- Category&#45;&gt;Semigroupoid -->
<g id="edge9" class="edge">
<title>Category&#45;&gt;Semigroupoid</title>
<path fill="none" stroke="#000000" d="M1200.4948,-36.1686C1200.4948,-43.869 1200.4948,-53.0257 1200.4948,-61.5834"/>
<polygon fill="#000000" stroke="#000000" points="1196.9949,-61.5867 1200.4948,-71.5867 1203.9949,-61.5868 1196.9949,-61.5867"/>
</g>
<!-- Alternative -->
<g id="node15" class="node">
<title>Alternative</title>
<g id="a_node15"><a xlink:href="./modules/Alternative.ts.html" xlink:title="Alternative">
<ellipse fill="#659dfe" stroke="#000000" cx="259.4948" cy="-18" rx="53.8905" ry="18"/>
<text text-anchor="middle" x="259.4948" y="-14.3" font-family="arial" font-size="14.00" fill="#000000">Alternative</text>
</a>
</g>
</g>
<!-- Applicative -->
<g id="node16" class="node">
<title>Applicative</title>
<g id="a_node16"><a xlink:href="./modules/Applicative.ts.html" xlink:title="Applicative">
<ellipse fill="#659dfe" stroke="#000000" cx="360.4948" cy="-90" rx="54.6905" ry="18"/>
<text text-anchor="middle" x="360.4948" y="-86.3" font-family="arial" font-size="14.00" fill="#000000">Applicative</text>
</a>
</g>
</g>
<!-- Alternative&#45;&gt;Applicative -->
<g id="edge13" class="edge">
<title>Alternative&#45;&gt;Applicative</title>
<path fill="none" stroke="#000000" d="M282.4133,-34.3379C296.1334,-44.1186 313.7717,-56.6924 328.8116,-67.414"/>
<polygon fill="#000000" stroke="#000000" points="327.143,-70.5227 337.3174,-73.4775 331.2063,-64.8227 327.143,-70.5227"/>
</g>
<!-- Plus -->
<g id="node30" class="node">
<title>Plus</title>
<g id="a_node30"><a xlink:href="./modules/Plus.ts.html" xlink:title="Plus">
<ellipse fill="#bfd7ff" stroke="#000000" cx="259.4948" cy="-90" rx="28.6953" ry="18"/>
<text text-anchor="middle" x="259.4948" y="-86.3" font-family="arial" font-size="14.00" fill="#000000">Plus</text>
</a>
</g>
</g>
<!-- Alternative&#45;&gt;Plus -->
<g id="edge14" class="edge">
<title>Alternative&#45;&gt;Plus</title>
<path fill="none" stroke="#000000" d="M259.4948,-36.1686C259.4948,-43.869 259.4948,-53.0257 259.4948,-61.5834"/>
<polygon fill="#000000" stroke="#000000" points="255.9949,-61.5867 259.4948,-71.5867 262.9949,-61.5868 255.9949,-61.5867"/>
</g>
<!-- Apply -->
<g id="node23" class="node">
<title>Apply</title>
<g id="a_node23"><a xlink:href="./modules/Apply.ts.html" xlink:title="Apply">
<ellipse fill="#bfd7ff" stroke="#000000" cx="467.4948" cy="-162" rx="33.5952" ry="18"/>
<text text-anchor="middle" x="467.4948" y="-158.3" font-family="arial" font-size="14.00" fill="#000000">Apply</text>
</a>
</g>
</g>
<!-- Applicative&#45;&gt;Apply -->
<g id="edge17" class="edge">
<title>Applicative&#45;&gt;Apply</title>
<path fill="none" stroke="#000000" d="M384.7748,-106.3379C400.5268,-116.9374 421.1537,-130.8172 437.8691,-142.065"/>
<polygon fill="#000000" stroke="#000000" points="435.9566,-144.9966 446.2071,-147.6756 439.8645,-139.189 435.9566,-144.9966"/>
</g>
<!-- Compactable -->
<g id="node17" class="node">
<title>Compactable</title>
<g id="a_node17"><a xlink:href="./modules/Compactable.ts.html" xlink:title="Compactable">
<ellipse fill="#659dfe" stroke="#000000" cx="185.4948" cy="-234" rx="64.189" ry="18"/>
<text text-anchor="middle" x="185.4948" y="-230.3" font-family="arial" font-size="14.00" fill="#000000">Compactable</text>
</a>
</g>
</g>
<!-- Foldable -->
<g id="node18" class="node">
<title>Foldable</title>
<g id="a_node18"><a xlink:href="./modules/Foldable.ts.html" xlink:title="Foldable">
<ellipse fill="#659dfe" stroke="#000000" cx="57.4948" cy="-234" rx="45.4919" ry="18"/>
<text text-anchor="middle" x="57.4948" y="-230.3" font-family="arial" font-size="14.00" fill="#000000">Foldable</text>
</a>
</g>
</g>
<!-- Monad -->
<g id="node20" class="node">
<title>Monad</title>
<g id="a_node20"><a xlink:href="./modules/Monad.ts.html" xlink:title="Monad">
<ellipse fill="#659dfe" stroke="#000000" cx="369.4948" cy="-18" rx="38.1938" ry="18"/>
<text text-anchor="middle" x="369.4948" y="-14.3" font-family="arial" font-size="14.00" fill="#000000">Monad</text>
</a>
</g>
</g>
<!-- Monad&#45;&gt;Applicative -->
<g id="edge16" class="edge">
<title>Monad&#45;&gt;Applicative</title>
<path fill="none" stroke="#000000" d="M367.2237,-36.1686C366.2612,-43.869 365.1166,-53.0257 364.0469,-61.5834"/>
<polygon fill="#000000" stroke="#000000" points="360.5639,-61.2298 362.7965,-71.5867 367.5099,-62.0981 360.5639,-61.2298"/>
</g>
<!-- Chain -->
<g id="node25" class="node">
<title>Chain</title>
<g id="a_node25"><a xlink:href="./modules/Chain.ts.html" xlink:title="Chain">
<ellipse fill="#bfd7ff" stroke="#000000" cx="467.4948" cy="-90" rx="34.394" ry="18"/>
<text text-anchor="middle" x="467.4948" y="-86.3" font-family="arial" font-size="14.00" fill="#000000">Chain</text>
</a>
</g>
</g>
<!-- Monad&#45;&gt;Chain -->
<g id="edge19" class="edge">
<title>Monad&#45;&gt;Chain</title>
<path fill="none" stroke="#000000" d="M390.2781,-33.2693C404.5001,-43.7181 423.5328,-57.7014 439.1435,-69.1705"/>
<polygon fill="#000000" stroke="#000000" points="437.2806,-72.1449 447.4118,-75.2451 441.4252,-66.5037 437.2806,-72.1449"/>
</g>
<!-- Traversable -->
<g id="node21" class="node">
<title>Traversable</title>
<g id="a_node21"><a xlink:href="./modules/Traversable.ts.html" xlink:title="Traversable">
<ellipse fill="#659dfe" stroke="#000000" cx="58.4948" cy="-162" rx="58.4896" ry="18"/>
<text text-anchor="middle" x="58.4948" y="-158.3" font-family="arial" font-size="14.00" fill="#000000">Traversable</text>
</a>
</g>
</g>
<!-- Traversable&#45;&gt;Foldable -->
<g id="edge24" class="edge">
<title>Traversable&#45;&gt;Foldable</title>
<path fill="none" stroke="#000000" d="M58.2425,-180.1686C58.1355,-187.869 58.0083,-197.0257 57.8895,-205.5834"/>
<polygon fill="#000000" stroke="#000000" points="54.3899,-205.5391 57.7505,-215.5867 61.3892,-205.6363 54.3899,-205.5391"/>
</g>
<!-- Traversable&#45;&gt;Functor -->
<g id="edge25" class="edge">
<title>Traversable&#45;&gt;Functor</title>
<path fill="none" stroke="#000000" d="M102.6907,-173.9678C110.6033,-176.0337 118.7828,-178.1196 126.4948,-180 193.8469,-196.422 272.2291,-213.5526 321.1095,-224.0014"/>
<polygon fill="#000000" stroke="#000000" points="320.5676,-227.4645 331.0777,-226.127 322.0275,-220.6184 320.5676,-227.4645"/>
</g>
<!-- Alt -->
<g id="node22" class="node">
<title>Alt</title>
<g id="a_node22"><a xlink:href="./modules/Alt.ts.html" xlink:title="Alt">
<ellipse fill="#bfd7ff" stroke="#000000" cx="276.4948" cy="-162" rx="27" ry="18"/>
<text text-anchor="middle" x="276.4948" y="-158.3" font-family="arial" font-size="14.00" fill="#000000">Alt</text>
</a>
</g>
</g>
<!-- Alt&#45;&gt;Functor -->
<g id="edge11" class="edge">
<title>Alt&#45;&gt;Functor</title>
<path fill="none" stroke="#000000" d="M294.2333,-175.8823C307.2741,-186.0881 325.2624,-200.1659 340.2685,-211.9099"/>
<polygon fill="#000000" stroke="#000000" points="338.2159,-214.7479 348.2481,-218.1547 342.5301,-209.2354 338.2159,-214.7479"/>
</g>
<!-- Apply&#45;&gt;Functor -->
<g id="edge18" class="edge">
<title>Apply&#45;&gt;Functor</title>
<path fill="none" stroke="#000000" d="M447.4607,-176.5703C433.3498,-186.8328 414.216,-200.7483 398.3171,-212.3111"/>
<polygon fill="#000000" stroke="#000000" points="395.8984,-209.7423 389.8697,-218.4546 400.0157,-215.4035 395.8984,-209.7423"/>
</g>
<!-- Bifunctor -->
<g id="node24" class="node">
<title>Bifunctor</title>
<g id="a_node24"><a xlink:href="./modules/Bifunctor.ts.html" xlink:title="Bifunctor">
<ellipse fill="#bfd7ff" stroke="#000000" cx="368.4948" cy="-162" rx="46.5926" ry="18"/>
<text text-anchor="middle" x="368.4948" y="-158.3" font-family="arial" font-size="14.00" fill="#000000">Bifunctor</text>
</a>
</g>
</g>
<!-- Bifunctor&#45;&gt;Functor -->
<g id="edge12" class="edge">
<title>Bifunctor&#45;&gt;Functor</title>
<path fill="none" stroke="#000000" d="M368.4948,-180.1686C368.4948,-187.869 368.4948,-197.0257 368.4948,-205.5834"/>
<polygon fill="#000000" stroke="#000000" points="364.9949,-205.5867 368.4948,-215.5867 371.9949,-205.5868 364.9949,-205.5867"/>
</g>
<!-- Chain&#45;&gt;Apply -->
<g id="edge20" class="edge">
<title>Chain&#45;&gt;Apply</title>
<path fill="none" stroke="#000000" d="M467.4948,-108.1686C467.4948,-115.869 467.4948,-125.0257 467.4948,-133.5834"/>
<polygon fill="#000000" stroke="#000000" points="463.9949,-133.5867 467.4948,-143.5867 470.9949,-133.5868 463.9949,-133.5867"/>
</g>
<!-- ChainRec -->
<g id="node26" class="node">
<title>ChainRec</title>
<g id="a_node26"><a xlink:href="./modules/ChainRec.ts.html" xlink:title="ChainRec">
<ellipse fill="#bfd7ff" stroke="#000000" cx="476.4948" cy="-18" rx="50.8918" ry="18"/>
<text text-anchor="middle" x="476.4948" y="-14.3" font-family="arial" font-size="14.00" fill="#000000">ChainRec</text>
</a>
</g>
</g>
<!-- ChainRec&#45;&gt;Chain -->
<g id="edge21" class="edge">
<title>ChainRec&#45;&gt;Chain</title>
<path fill="none" stroke="#000000" d="M474.2237,-36.1686C473.2612,-43.869 472.1166,-53.0257 471.0469,-61.5834"/>
<polygon fill="#000000" stroke="#000000" points="467.5639,-61.2298 469.7965,-71.5867 474.5099,-62.0981 467.5639,-61.2298"/>
</g>
<!-- Comonad -->
<g id="node27" class="node">
<title>Comonad</title>
<g id="a_node27"><a xlink:href="./modules/Comonad.ts.html" xlink:title="Comonad">
<ellipse fill="#bfd7ff" stroke="#000000" cx="569.4948" cy="-90" rx="50.0912" ry="18"/>
<text text-anchor="middle" x="569.4948" y="-86.3" font-family="arial" font-size="14.00" fill="#000000">Comonad</text>
</a>
</g>
</g>
<!-- Extend -->
<g id="node28" class="node">
<title>Extend</title>
<g id="a_node28"><a xlink:href="./modules/Extend.ts.html" xlink:title="Extend">
<ellipse fill="#bfd7ff" stroke="#000000" cx="562.4948" cy="-162" rx="38.9931" ry="18"/>
<text text-anchor="middle" x="562.4948" y="-158.3" font-family="arial" font-size="14.00" fill="#000000">Extend</text>
</a>
</g>
</g>
<!-- Comonad&#45;&gt;Extend -->
<g id="edge22" class="edge">
<title>Comonad&#45;&gt;Extend</title>
<path fill="none" stroke="#000000" d="M567.7284,-108.1686C566.9798,-115.869 566.0895,-125.0257 565.2575,-133.5834"/>
<polygon fill="#000000" stroke="#000000" points="561.7692,-133.2949 564.285,-143.5867 568.7363,-133.9724 561.7692,-133.2949"/>
</g>
<!-- Extend&#45;&gt;Functor -->
<g id="edge23" class="edge">
<title>Extend&#45;&gt;Functor</title>
<path fill="none" stroke="#000000" d="M531.7549,-173.4086C498.8011,-185.6389 446.303,-205.1227 409.7675,-218.6823"/>
<polygon fill="#000000" stroke="#000000" points="408.5379,-215.4053 400.3806,-222.1661 410.9735,-221.9679 408.5379,-215.4053"/>
</g>
<!-- Filterable -->
<g id="node29" class="node">
<title>Filterable</title>
<g id="a_node29"><a xlink:href="./modules/Filterable.ts.html" xlink:title="Filterable">
<ellipse fill="#bfd7ff" stroke="#000000" cx="183.4948" cy="-162" rx="48.1917" ry="18"/>
<text text-anchor="middle" x="183.4948" y="-158.3" font-family="arial" font-size="14.00" fill="#000000">Filterable</text>
</a>
</g>
</g>
<!-- Filterable&#45;&gt;Compactable -->
<g id="edge27" class="edge">
<title>Filterable&#45;&gt;Compactable</title>
<path fill="none" stroke="#000000" d="M183.9995,-180.1686C184.2134,-187.869 184.4677,-197.0257 184.7055,-205.5834"/>
<polygon fill="#000000" stroke="#000000" points="181.2069,-205.6878 184.9833,-215.5867 188.2042,-205.4934 181.2069,-205.6878"/>
</g>
<!-- Filterable&#45;&gt;Functor -->
<g id="edge26" class="edge">
<title>Filterable&#45;&gt;Functor</title>
<path fill="none" stroke="#000000" d="M216.9969,-175.0387C248.1762,-187.1733 294.7045,-205.2816 327.9634,-218.2256"/>
<polygon fill="#000000" stroke="#000000" points="326.8086,-221.5319 337.3972,-221.8971 329.3475,-215.0085 326.8086,-221.5319"/>
</g>
<!-- Plus&#45;&gt;Alt -->
<g id="edge15" class="edge">
<title>Plus&#45;&gt;Alt</title>
<path fill="none" stroke="#000000" d="M263.7846,-108.1686C265.651,-116.0734 267.8798,-125.5128 269.9459,-134.2635"/>
<polygon fill="#000000" stroke="#000000" points="266.5609,-135.1585 272.2653,-144.0866 273.3736,-133.5499 266.5609,-135.1585"/>
</g>
<!-- Witherable -->
<g id="node31" class="node">
<title>Witherable</title>
<g id="a_node31"><a xlink:href="./modules/Witherable.ts.html" xlink:title="Witherable">
<ellipse fill="#bfd7ff" stroke="#000000" cx="108.4948" cy="-90" rx="53.8905" ry="18"/>
<text text-anchor="middle" x="108.4948" y="-86.3" font-family="arial" font-size="14.00" fill="#000000">Witherable</text>
</a>
</g>
</g>
<!-- Witherable&#45;&gt;Traversable -->
<g id="edge28" class="edge">
<title>Witherable&#45;&gt;Traversable</title>
<path fill="none" stroke="#000000" d="M96.1353,-107.7978C90.2458,-116.2786 83.0862,-126.5885 76.5987,-135.9304"/>
<polygon fill="#000000" stroke="#000000" points="73.7147,-133.9473 70.8855,-144.1575 79.4643,-137.9401 73.7147,-133.9473"/>
</g>
<!-- Witherable&#45;&gt;Filterable -->
<g id="edge29" class="edge">
<title>Witherable&#45;&gt;Filterable</title>
<path fill="none" stroke="#000000" d="M126.2688,-107.063C135.8893,-116.2987 147.9313,-127.859 158.4838,-137.9894"/>
<polygon fill="#000000" stroke="#000000" points="156.2107,-140.659 165.8484,-145.0595 161.0584,-135.6093 156.2107,-140.659"/>
</g>
<!-- BooleanAlgebra -->
<g id="node32" class="node">
<title>BooleanAlgebra</title>
<g id="a_node32"><a xlink:href="./modules/BooleanAlgebra.ts.html" xlink:title="BooleanAlgebra">
<ellipse fill="#fdf4aa" stroke="#000000" cx="1358.4948" cy="-18" rx="75.2868" ry="18"/>
<text text-anchor="middle" x="1358.4948" y="-14.3" font-family="arial" font-size="14.00" fill="#000000">BooleanAlgebra</text>
</a>
</g>
</g>
<!-- HeytingAlgebra -->
<g id="node38" class="node">
<title>HeytingAlgebra</title>
<g id="a_node38"><a xlink:href="./modules/HeytingAlgebra.ts.html" xlink:title="HeytingAlgebra">
<ellipse fill="#fdf4aa" stroke="#000000" cx="1358.4948" cy="-90" rx="72.5877" ry="18"/>
<text text-anchor="middle" x="1358.4948" y="-86.3" font-family="arial" font-size="14.00" fill="#000000">HeytingAlgebra</text>
</a>
</g>
</g>
<!-- BooleanAlgebra&#45;&gt;HeytingAlgebra -->
<g id="edge30" class="edge">
<title>BooleanAlgebra&#45;&gt;HeytingAlgebra</title>
<path fill="none" stroke="#000000" d="M1358.4948,-36.1686C1358.4948,-43.869 1358.4948,-53.0257 1358.4948,-61.5834"/>
<polygon fill="#000000" stroke="#000000" points="1354.9949,-61.5867 1358.4948,-71.5867 1361.9949,-61.5868 1354.9949,-61.5867"/>
</g>
<!-- BoundedDistributiveLattice -->
<g id="node33" class="node">
<title>BoundedDistributiveLattice</title>
<g id="a_node33"><a xlink:href="./modules/BoundedDistributiveLattice.ts.html" xlink:title="BoundedDistributiveLattice">
<ellipse fill="#fdf4aa" stroke="#000000" cx="1358.4948" cy="-162" rx="118.8789" ry="18"/>
<text text-anchor="middle" x="1358.4948" y="-158.3" font-family="arial" font-size="14.00" fill="#000000">BoundedDistributiveLattice</text>
</a>
</g>
</g>
<!-- BoundedLattice -->
<g id="node35" class="node">
<title>BoundedLattice</title>
<g id="a_node35"><a xlink:href="./modules/BoundedLattice.ts.html" xlink:title="BoundedLattice">
<ellipse fill="#fdf4aa" stroke="#000000" cx="1445.4948" cy="-234" rx="74.187" ry="18"/>
<text text-anchor="middle" x="1445.4948" y="-230.3" font-family="arial" font-size="14.00" fill="#000000">BoundedLattice</text>
</a>
</g>
</g>
<!-- BoundedDistributiveLattice&#45;&gt;BoundedLattice -->
<g id="edge32" class="edge">
<title>BoundedDistributiveLattice&#45;&gt;BoundedLattice</title>
<path fill="none" stroke="#000000" d="M1380.0004,-179.7978C1391.0391,-188.9332 1404.6421,-200.1908 1416.5854,-210.075"/>
<polygon fill="#000000" stroke="#000000" points="1414.6013,-212.9761 1424.5368,-216.6554 1419.0643,-207.5833 1414.6013,-212.9761"/>
</g>
<!-- DistributiveLattice -->
<g id="node37" class="node">
<title>DistributiveLattice</title>
<g id="a_node37"><a xlink:href="./modules/DistributiveLattice.ts.html" xlink:title="DistributiveLattice">
<ellipse fill="#fdf4aa" stroke="#000000" cx="1270.4948" cy="-234" rx="82.5854" ry="18"/>
<text text-anchor="middle" x="1270.4948" y="-230.3" font-family="arial" font-size="14.00" fill="#000000">DistributiveLattice</text>
</a>
</g>
</g>
<!-- BoundedDistributiveLattice&#45;&gt;DistributiveLattice -->
<g id="edge34" class="edge">
<title>BoundedDistributiveLattice&#45;&gt;DistributiveLattice</title>
<path fill="none" stroke="#000000" d="M1336.742,-179.7978C1325.6592,-188.8655 1312.0208,-200.0242 1300.0053,-209.8551"/>
<polygon fill="#000000" stroke="#000000" points="1297.5207,-207.3657 1291.9974,-216.407 1301.9533,-212.7834 1297.5207,-207.3657"/>
</g>
<!-- BoundedJoinSemilattice -->
<g id="node34" class="node">
<title>BoundedJoinSemilattice</title>
<g id="a_node34"><a xlink:href="./modules/BoundedJoinSemilattice.ts.html" xlink:title="BoundedJoinSemilattice">
<ellipse fill="#fdf4aa" stroke="#000000" cx="1434.4948" cy="-306" rx="108.5808" ry="18"/>
<text text-anchor="middle" x="1434.4948" y="-302.3" font-family="arial" font-size="14.00" fill="#000000">BoundedJoinSemilattice</text>
</a>
</g>
</g>
<!-- JoinSemilattice -->
<g id="node39" class="node">
<title>JoinSemilattice</title>
<g id="a_node39"><a xlink:href="./modules/JoinSemilattice.ts.html" xlink:title="JoinSemilattice">
<ellipse fill="#fdf4aa" stroke="#000000" cx="1352.4948" cy="-378" rx="72.2875" ry="18"/>
<text text-anchor="middle" x="1352.4948" y="-374.3" font-family="arial" font-size="14.00" fill="#000000">JoinSemilattice</text>
</a>
</g>
</g>
<!-- BoundedJoinSemilattice&#45;&gt;JoinSemilattice -->
<g id="edge38" class="edge">
<title>BoundedJoinSemilattice&#45;&gt;JoinSemilattice</title>
<path fill="none" stroke="#000000" d="M1414.2251,-323.7978C1403.9209,-332.8454 1391.246,-343.9745 1380.0679,-353.7895"/>
<polygon fill="#000000" stroke="#000000" points="1377.4535,-351.4273 1372.2484,-360.6554 1382.0721,-356.6874 1377.4535,-351.4273"/>
</g>
<!-- BoundedLattice&#45;&gt;BoundedJoinSemilattice -->
<g id="edge33" class="edge">
<title>BoundedLattice&#45;&gt;BoundedJoinSemilattice</title>
<path fill="none" stroke="#000000" d="M1442.719,-252.1686C1441.5426,-259.869 1440.1437,-269.0257 1438.8362,-277.5834"/>
<polygon fill="#000000" stroke="#000000" points="1435.3584,-277.1728 1437.3079,-287.5867 1442.2781,-278.2301 1435.3584,-277.1728"/>
</g>
<!-- BoundedMeetSemilattice -->
<g id="node36" class="node">
<title>BoundedMeetSemilattice</title>
<g id="a_node36"><a xlink:href="./modules/BoundedMeetSemilattice.ts.html" xlink:title="BoundedMeetSemilattice">
<ellipse fill="#fdf4aa" stroke="#000000" cx="1672.4948" cy="-306" rx="111.5806" ry="18"/>
<text text-anchor="middle" x="1672.4948" y="-302.3" font-family="arial" font-size="14.00" fill="#000000">BoundedMeetSemilattice</text>
</a>
</g>
</g>
<!-- BoundedLattice&#45;&gt;BoundedMeetSemilattice -->
<g id="edge39" class="edge">
<title>BoundedLattice&#45;&gt;BoundedMeetSemilattice</title>
<path fill="none" stroke="#000000" d="M1490.6141,-248.311C1525.2718,-259.3037 1573.4912,-274.598 1611.5734,-286.6769"/>
<polygon fill="#000000" stroke="#000000" points="1610.9326,-290.1455 1621.5229,-289.8327 1613.049,-283.473 1610.9326,-290.1455"/>
</g>
<!-- MeetSemilattice -->
<g id="node41" class="node">
<title>MeetSemilattice</title>
<g id="a_node41"><a xlink:href="./modules/MeetSemilattice.ts.html" xlink:title="MeetSemilattice">
<ellipse fill="#fdf4aa" stroke="#000000" cx="1595.4948" cy="-378" rx="75.2868" ry="18"/>
<text text-anchor="middle" x="1595.4948" y="-374.3" font-family="arial" font-size="14.00" fill="#000000">MeetSemilattice</text>
</a>
</g>
</g>
<!-- BoundedMeetSemilattice&#45;&gt;MeetSemilattice -->
<g id="edge40" class="edge">
<title>BoundedMeetSemilattice&#45;&gt;MeetSemilattice</title>
<path fill="none" stroke="#000000" d="M1653.4611,-323.7978C1643.8569,-332.7783 1632.0594,-343.8098 1621.6201,-353.5711"/>
<polygon fill="#000000" stroke="#000000" points="1619.2234,-351.0205 1614.3096,-360.407 1624.0043,-356.1335 1619.2234,-351.0205"/>
</g>
<!-- Lattice -->
<g id="node40" class="node">
<title>Lattice</title>
<g id="a_node40"><a xlink:href="./modules/Lattice.ts.html" xlink:title="Lattice">
<ellipse fill="#fdf4aa" stroke="#000000" cx="1270.4948" cy="-306" rx="37.8943" ry="18"/>
<text text-anchor="middle" x="1270.4948" y="-302.3" font-family="arial" font-size="14.00" fill="#000000">Lattice</text>
</a>
</g>
</g>
<!-- DistributiveLattice&#45;&gt;Lattice -->
<g id="edge35" class="edge">
<title>DistributiveLattice&#45;&gt;Lattice</title>
<path fill="none" stroke="#000000" d="M1270.4948,-252.1686C1270.4948,-259.869 1270.4948,-269.0257 1270.4948,-277.5834"/>
<polygon fill="#000000" stroke="#000000" points="1266.9949,-277.5867 1270.4948,-287.5867 1273.9949,-277.5868 1266.9949,-277.5867"/>
</g>
<!-- HeytingAlgebra&#45;&gt;BoundedDistributiveLattice -->
<g id="edge31" class="edge">
<title>HeytingAlgebra&#45;&gt;BoundedDistributiveLattice</title>
<path fill="none" stroke="#000000" d="M1358.4948,-108.1686C1358.4948,-115.869 1358.4948,-125.0257 1358.4948,-133.5834"/>
<polygon fill="#000000" stroke="#000000" points="1354.9949,-133.5867 1358.4948,-143.5867 1361.9949,-133.5868 1354.9949,-133.5867"/>
</g>
<!-- Lattice&#45;&gt;JoinSemilattice -->
<g id="edge36" class="edge">
<title>Lattice&#45;&gt;JoinSemilattice</title>
<path fill="none" stroke="#000000" d="M1288.6933,-321.9791C1299.3759,-331.359 1313.0866,-343.3976 1325.0584,-353.9095"/>
<polygon fill="#000000" stroke="#000000" points="1322.8015,-356.5856 1332.6253,-360.5536 1327.4202,-351.3255 1322.8015,-356.5856"/>
</g>
<!-- Lattice&#45;&gt;MeetSemilattice -->
<g id="edge37" class="edge">
<title>Lattice&#45;&gt;MeetSemilattice</title>
<path fill="none" stroke="#000000" d="M1298.9266,-318.0522C1304.6771,-320.226 1310.729,-322.329 1316.4948,-324 1384.4426,-343.6922 1463.8044,-358.2661 1520.4762,-367.2773"/>
<polygon fill="#000000" stroke="#000000" points="1520.0096,-370.7468 1530.4314,-368.8401 1521.0953,-363.8315 1520.0096,-370.7468"/>
</g>
</g>
</svg>
